<?xml version="1.0" encoding="UTF-8"?>
<svg xmlns="http://www.w3.org/2000/svg" version="1.1" viewBox="0 0 639 681">
  <defs>
    <style>
      .cls-1 {
        fill: #dadce5;
      }

      .cls-2 {
        fill: #ec7d45;
      }

      .cls-3 {
        fill: #fcfcfc;
      }

      .cls-4 {
        fill: #ee954f;
      }

      .cls-5 {
        fill: #020202;
      }

      .cls-6 {
        fill: #fcc680;
      }

      .cls-7 {
        fill: #f0a357;
      }

      .cls-8 {
        fill: #e1e2e9;
      }

      .cls-9 {
        fill: #050505;
      }

      .cls-10 {
        fill: #ef9c54;
      }

      .cls-11 {
        fill: #cd5f2f;
      }

      .cls-12 {
        fill: #e5e7ed;
      }

      .cls-13 {
        fill: #29282e;
      }

      .cls-14 {
        fill: #ec8d4c;
      }

      .cls-15 {
        fill: #d8dae3;
      }

      .cls-16 {
        fill: #030303;
      }

      .cls-17 {
        fill: #c25327;
      }

      .cls-18 {
        fill: #d6dae6;
      }

      .cls-19 {
        fill: #3d3c40;
      }

      .cls-20 {
        fill: #f2a85a;
      }

      .cls-21 {
        fill: #ee7a41;
      }

      .cls-22 {
        fill: #040302;
      }

      .cls-23 {
        fill: #f3f3f4;
      }

      .cls-24 {
        fill: #323136;
      }

      .cls-25 {
        fill: #222126;
      }

      .cls-26 {
        fill: #cfd2de;
      }

      .cls-27 {
        fill: #dea277;
      }

      .cls-28 {
        fill: #fdfdfd;
      }
    </style>
  </defs>
  <!-- Generator: Adobe Illustrator 28.7.3, SVG Export Plug-In . SVG Version: 1.2.0 Build 164)  -->
  <g>
    <g id="Layer_1">
      <path class="cls-16" d="M95.01,681c4.91-19.15,8.8-38.63,14.98-57.35,8.3-25.16,18.37-49.75,27.77-74.83-17.45-8.6-34.68-19.67-50.58-32.79-17.37-14.33-31.21-31.61-42.83-50.8-10.13-16.72-17.21-34.75-22.41-53.45-4.27-15.35-5.8-31.19-6.72-47.14-1.7-29.19,2.15-57.62,9.89-85.65,1.18-4.26.7-8.2.06-12.58-2.88-19.62-5.64-39.31-7.2-59.07-2.1-26.58-1-53.19,2.98-79.58,4.81-31.89,12.64-62.99,27.65-91.78,3.24-6.22,7.84-12.02,12.84-16.99,8.5-8.46,19.5-9.63,30.67-7.2,23.5,5.1,45.48,14.44,66.95,25.06,24.25,11.99,46.48,27.02,67.16,44.59,14.21-6.18,29.04-9.38,44.31-11.56,24.35-3.48,48.64-4.6,73.2-2.93,18.42,1.26,36.5,4.21,54.42,8.35,4.98,1.15,9.68,3.44,14.59,4.92,1.26.38,3.28.17,4.22-.63,32.5-27.53,69.57-47.03,109.32-61.55,9.66-3.53,20.09-5.52,30.34-6.73,12.24-1.45,21.35,5.11,28.12,14.8,10.78,15.44,17.68,32.74,22.46,50.78,4.43,16.7,8.93,33.51,11.47,50.55,3.37,22.68,5.12,45.63,4.17,68.65-1.05,25.37-3.15,50.59-8.93,75.44-.96,4.12,1.02,9.11,2.28,13.51,8.99,31.4,11.26,63.25,7.16,95.63-3.13,24.71-9.07,48.63-20.19,71.03-11.69,23.54-27.23,44.25-47.19,61.43-16.65,14.33-34.94,26.33-54.72,36.51,3.74,8.69,7.46,17.12,11.03,25.62,12.94,30.78,23.5,62.31,29.97,95.13.69,3.52,1.28,7.07,1.91,10.6h-26.01c-.2-1.81-.2-3.66-.63-5.41-3.13-12.91-5.79-25.97-9.66-38.66-4.83-15.85-10.67-31.4-16.08-47.08-4.48-10.04-8.95-20.09-13.46-30.19-6.91,2.46-13.13,4.66-19.34,6.87-14.69,3.96-29.2,8.86-44.11,11.64-20.04,3.74-40.32,6.82-60.63,8.34-18.92,1.42-38.04.94-57.05.41-30.39-.86-60.28-5.76-89.75-13.17-7.67-1.93-15.31-3.95-22.96-5.92-1.14-.42-2.29-.83-3.43-1.25-.82-.26-1.64-.51-2.46-.77-5.45-2.21-10.89-4.42-16.78-6.81-1.1,3.02-1.99,5.47-2.88,7.92-1.21,2.68-2.41,5.37-3.62,8.05-2.06,4.66-4.12,9.32-6.18,13.99-1.71,4.33-3.42,8.66-5.17,13.08h18.1c.69.82,1.38,1.64,2.07,2.46.91.85,1.83,1.7,2.74,2.54,6.44,8.81,13.46,17.26,19.19,26.51,9.11,14.7,15.86,30.57,20.03,47.44h-111.03ZM472.22,75.02c1.24-.34,2.65-.4,3.69-1.06,3.31-2.1,6.28-4.82,9.75-6.58,11.96-6.08,23.87-12.34,36.2-17.58,9.25-3.93,19.08-6.54,28.74-9.42,2.77-.83,5.87-.55,8.82-.78-5.93-3.85-11.91-1.57-17.29.02-21.76,6.44-42.09,16.33-61.79,27.53-3.14,1.79-6.18,3.76-9.27,5.65-.49.07-1.1-.01-1.47.24-10.39,7.32-20.87,14.51-31.06,22.1-4.18,3.11-7.7,7.11-11.52,10.7-1.42.82-2.75,2.06-4.27,2.36-4.03.81-8.61,2.64-12.12,1.49-6.93-2.27-12.99-7.42-19.96-9.33-12.91-3.55-26.13-6.25-39.39-8.12-9.92-1.4-20.1-.93-30.17-1.29-16.52,1.36-33.13,2.02-49.52,4.3-13.21,1.84-26.3,4.98-38.05,12.15-6.31,3.85-12.99,4.92-18.97-1.16-.28-.29-.93-.22-1.41-.31-.59-.92-1-2.08-1.8-2.74-6.59-5.42-13.12-10.92-19.93-16.04-4.56-3.42-9.55-6.27-14.35-9.37-8.88-5.37-17.64-10.95-26.67-16.05-17.91-10.11-36.47-18.74-56.59-23.63-11.48-2.79-17.88-.16-23.45,10.25-1.96,3.66-3.88,7.37-5.37,11.24-9.55,24.88-15.76,50.48-18.94,77.04-2.69,22.44-3.87,44.78-2.75,67.29,1.18,8.91,2.35,17.83,3.53,26.74-.26,1.48-.89,3-.72,4.43.66,5.38,1.58,10.74,2.4,16.1.81,4.11,2.54,8.29,2.25,12.33-.62,8.69-2.21,17.31-3.52,25.94-2.05,13.55-5.46,27.04-5.96,40.64-.66,17.85.12,35.86,1.79,53.65,2.48,26.47,12.49,50.59,26.11,73.27.09.48.02,1.1.3,1.43,9.08,10.63,18.18,21.23,27.29,31.84.96.83,1.93,1.67,2.89,2.5,2.38,1.87,4.77,3.74,7.15,5.61l5.86,4.36c1.43,1.13,2.85,2.27,4.28,3.4,5.77,3.7,11.54,7.4,17.31,11.11.91.49,1.82.98,2.72,1.48.8.65,1.59,1.29,2.39,1.94,1.19.52,2.39,1.04,3.58,1.57.88.29,1.76.59,2.64.88.8.58,1.59,1.16,2.39,1.74,2.62,1.32,5.24,2.64,7.85,3.96,2.02.79,4.04,1.57,6.06,2.36,1.6.3,3.19.61,4.79.91.76.64,1.52,1.27,2.29,1.91l10.04,3.88c.67.31,1.35.62,2.02.94,1.64.65,3.23,1.48,4.92,1.92,18.28,4.79,36.48,10.01,54.92,14.08,12.87,2.84,26.04,4.55,39.16,5.89,12.27,1.26,24.66,1.37,36.99,1.98,4.11.04,8.22.09,12.33.13,1.23-.08,2.45-.15,3.68-.23,1.66-.13,3.31-.26,4.97-.38,1.03-.02,2.05-.05,3.08-.07l1.95-.11c3.67-.37,7.33-.74,11-1.12.67.03,1.33.05,2,.08.99-.03,1.98-.07,2.97-.1.67-.17,1.35-.34,2.02-.52,5.34-.46,10.68-.93,16.01-1.39,1.04-.24,2.07-.48,3.11-.72.67-.13,1.34-.27,2.01-.4,3.11-.35,6.25-.52,9.33-1.08,8.25-1.5,16.45-3.28,24.7-4.76,16.6-2.98,32.39-8.57,48.01-14.73,8.69-3.68,17.34-7.43,26.07-11.01,15.27-6.26,28.55-15.79,41.54-25.66,6.53-4.96,12.25-11.01,18.2-16.72,8.51-8.17,15.87-17.26,21.39-27.75,4.19-7.52,9.26-14.69,12.4-22.62,11.51-29.04,16.87-59.21,15.59-90.59-.79-19.33-2.65-38.41-8-57.06-3.74-10.68-3.14-21.43-.58-32.22,1.23-8.42,2.58-16.82,3.64-25.26.68-5.47.93-11,1.37-16.5.16-2,.31-4.01.47-6.01.06-.61.12-1.21.19-1.82l.22-13.18c.02-2.97.04-5.95.06-8.92.02-1.33.04-2.66.06-3.99.09-22.51-2.21-44.85-7.26-66.71-3.87-16.75-9.63-33.07-14.76-49.5-1.07-3.41-2.61-7.19-7.67-5.7-6.29,3.51-12.74,6.76-18.83,10.58-17.25,10.84-29.63,26.25-39.97,43.49-.75,1.05-1.78,2-2.2,3.16-3.2,8.91-6.29,17.86-9.41,26.79-2.77-1.38-5.58-2.7-8.3-4.17-10.43-5.64-20.84-11.32-31.25-16.99-.39,0-.77,0-1.16-.01-.2-.2-.42-.23-.66-.08-1.6-1.08-3.1-2.4-4.83-3.19-5.81-2.64-11.71-5.08-17.57-7.6,3.38-3.39,6.49-7.09,10.18-10.11,9.55-7.81,19.35-15.32,29.06-22.96Z"/>
      <path class="cls-28" d="M164.08,604.51c-.69-.82-1.38-1.64-2.07-2.46-.32-.7-.65-1.39-.97-2.09,2.68-2.74,5.46-3.79,9.33-1.9,5.32,2.6,10.75,5.19,16.41,6.79,16.86,4.76,33.79,9.34,50.83,13.42,24.99,5.99,50.43,8.9,76.13,8.62,15.09-.17,30.19-.79,45.23-1.99,12.83-1.02,25.68-2.58,38.32-4.93,12.09-2.25,24.02-5.53,35.87-8.89,12-3.39,23.95-7.08,35.64-11.37,3.97-1.46,7.03-2.38,10.4.46-.57.98-.99,2.09-1.72,2.93-12.67,14.61-24.26,30-31.8,47.93-4.1,9.75-7.09,19.97-10.57,29.98h-229.06c-4.18-16.87-10.92-32.74-20.03-47.44-5.73-9.25-12.75-17.7-19.19-26.51-.91-.85-1.83-1.7-2.74-2.54Z"/>
      <path class="cls-6" d="M435.11,681c3.49-10.01,6.48-20.23,10.57-29.98,7.54-17.93,19.14-33.32,31.8-47.93.73-.84,1.15-1.95,1.72-2.93,0,0,.03-.04.03-.04.32.05.62.15.9.32.59,3.56.61,7.33,1.88,10.62,2.72,7.02,6.28,13.72,9.16,20.69,2.5,6.06,4.8,12.23,6.7,18.51,1.63,5.38,3.94,10.98-.71,16.27-1.95,2.21-3.53,4.75-5.71,7.72-3.46-.15-5.24,2.92-6.33,6.76h-50.01Z"/>
      <path class="cls-27" d="M485.12,681c1.09-3.84,2.87-6.91,6.33-6.76,2.18-2.97,3.76-5.51,5.71-7.72,4.65-5.28,2.34-10.89.71-16.27-1.9-6.27-4.2-12.45-6.7-18.51-2.88-6.97-6.43-13.66-9.16-20.69-1.28-3.29-1.29-7.07-1.88-10.63,3.88-3.53,7.75-7.06,11.63-10.58,5.41,15.68,11.25,31.22,16.08,47.08,3.87,12.69,6.53,25.75,9.66,38.66.42,1.75.43,3.61.63,5.41h-33.01Z"/>
      <path class="cls-20" d="M457.21,118.97c10.42,5.67,20.82,11.35,31.25,16.99,2.72,1.47,5.53,2.78,8.3,4.16,1.26,1.25,2.43,2.62,3.8,3.74,7.79,6.39,15.63,12.73,23.45,19.09-2.4-.97-4.79-1.94-7.42-3.01-.79,4.01,3.29,8.59-2.27,10.69-1.59-1.31-2.8-3.03-4.37-3.48-12.1-3.48-22.48-9.98-32.45-17.44-2.11-1.58-6.06-3.47-7.54-2.57-3.48,2.13-7.53,4.27-7.02,10.23.95,11.22.85,22.52,1.18,33.79.12,4.06-1.07,7.02-5.68,7.86-1.23.22-3,1.79-3.14,2.93-.67,5.17.65,11.13-6.48,13.05-.38,5.96-7.35,9.51-5.77,16.3.81,3.49-.66,5.93-4.46,7.14-1.47.47-2.37,2.7-3.54,4.12-3.22,3.91-2.78,10.84-9.83,11.71-.82.1-1.88,2.18-2,3.41-.39,4.22,2.39,8.41.2,12.83-.16.33,2.87,2.31,4.49,3.41,1.34.92,2.79,1.68,4.19,2.52-1.8-.11-3.65.02-5.38-.38-23.26-5.33-43.79-15.89-61.29-32.21l.08-.34h-.36c-.54-.55-1.09-1.08-1.63-1.61v-.35s-.34.07-.34.07l-3.28-3.77c-.24-.23-.48-.45-.72-.68-2.2-2.4-4.39-4.81-6.59-7.21-.18-.18-.35-.36-.53-.54-.38-.52-.76-1.03-1.13-1.55-.25-.3-.5-.6-.75-.9l-.5-1.03c-1.17-1.65-2.34-3.3-3.51-4.94l-.52-1.02c-.46-.71-.92-1.42-1.39-2.13-.18-.3-.37-.6-.55-.89l-1.76-2.66s-.18-.29-.18-.29c-.45-.78-.89-1.56-1.34-2.33-.23-.58-.45-1.16-.68-1.75-.49-.72-.97-1.44-1.46-2.16-.05-.33-.18-.62-.41-.86-1.56-3.33-3.11-6.67-4.67-10-.24-.99-.47-1.98-.71-2.97l-4.61-12.87c-.13-.7-.25-1.4-.38-2.1-.59-2.29-1.18-4.57-1.78-6.86-.13-.71-.26-1.41-.39-2.12-.83-3.97-1.66-7.94-2.5-11.9-.06-.73-.13-1.45-.19-2.18-.28-5.58-.57-11.15-.85-16.73.09-10.47.25-20.94.22-31.41-.01-3.28.91-5.08,4.52-4.84,7.38.5,14.79.65,22.13,1.41,9.02.94,18.02,2.2,26.98,3.61,8.15,1.29,16.32,2.61,24.32,4.58,6.48,1.6,12.75,4.1,19.05,6.37,7.4,2.66,14.76,5.45,22.1,8.26,2.36.9,4.64,2.03,7.59,3.33.97-3.19,1.37-5.8,2.55-7.98.82-1.52,2.72-2.45,4.14-3.65.24-.14.46-.11.66.08.39,0,.77,0,1.16.01Z"/>
      <path class="cls-18" d="M479.2,600.16c-3.37-2.83-6.44-1.91-10.4-.46-11.7,4.3-23.64,7.98-35.64,11.37-11.85,3.35-23.78,6.64-35.87,8.89-12.65,2.35-25.49,3.91-38.32,4.93-15.04,1.19-30.15,1.82-45.23,1.99-25.7.28-51.13-2.63-76.13-8.62-17.04-4.08-33.97-8.66-50.83-13.42-5.66-1.6-11.1-4.19-16.41-6.79-3.87-1.89-6.65-.84-9.33,1.9-1.16-1.25-2.33-2.51-3.49-3.76,7.74-1.83,12.11-12.29,11.31-17.45-.16-1.03-1.74-2.41-2.85-2.61-3.53-.64-7.16-.81-10.74-1.16,1.21-2.68,2.41-5.37,3.62-8.05,6.56-.37,13.11-.74,19.67-1.11.82.26,1.64.51,2.46.77,1.14.42,2.29.83,3.43,1.25,7.65,1.98,15.3,4,22.96,5.92,29.48,7.4,59.36,12.3,89.75,13.17,19.01.54,38.13,1.02,57.05-.41,20.31-1.53,40.59-4.61,60.63-8.34,14.91-2.78,29.42-7.69,44.11-11.64,2.85,4.43,5.69,8.86,8.57,13.28,2.6,4,4.77,8.42,8.01,11.81,2.5,2.61,4.1,4.95,3.69,8.51l-.03.04Z"/>
      <path class="cls-3" d="M43.34,203.92c-1.12-22.52.06-44.86,2.75-67.29,3.18-26.56,9.38-52.16,18.94-77.04,1.48-3.86,3.41-7.58,5.37-11.24,5.58-10.41,11.97-13.04,23.45-10.25,20.12,4.89,38.68,13.52,56.59,23.63,9.03,5.1,17.79,10.69,26.67,16.05,1.56,2,2.92,4.21,4.73,5.96,8.32,8.11,16.77,16.09,25.17,24.11-8.32,3.68-16.89,6.9-24.91,11.14-10.95,5.79-21.48,12.35-32.2,18.58-1.86,1.08-3.71,2.17-5.57,3.25-.12-9.49-3.73-17.85-8.34-25.89-3.2-5.38-5.7-11.38-9.75-16.03-8.48-9.72-17.31-19.23-26.9-27.82-5.94-5.32-13.36-9.13-20.48-12.95-4.63-2.48-7.61-.62-8.58,4.56-.7,3.72-1.18,7.55-1.2,11.33-.14,25.54-.92,51.11,2.99,76.48.9,5.82,1.93,11.63,2.9,17.44.95,4.95,1.73,9.94,2.9,14.83,1.26,5.21,2.89,10.34,4.36,15.5-2.33,3.25-4.65,6.5-6.98,9.75-1.48-.11-3.31.29-4.37-.44-3.72-2.53-6.84-2.3-10.05,2.29-.92-5.89-10.12-2.05-8.27-10.59-2.25.82-3.79,1.39-5.32,1.95.99,1.38,1.98,2.76,3.92,5.45-2.27-.52-3.73-.74-5.09-1.22-.97-.34-1.82-1.03-2.72-1.56ZM60.12,201.74c-.83-.67-1.27-1.29-1.8-1.36-.33-.05-1.13.79-1.07,1.13.08.48.7,1.09,1.18,1.2.39.08.93-.5,1.69-.97ZM54.18,197.19c-.14.04-.31.05-.41.14-.04.03.06.23.09.36.14-.04.31-.06.41-.14.04-.03-.06-.23-.09-.36Z"/>
      <path class="cls-25" d="M69.23,457.02c-13.62-22.67-23.62-46.8-26.11-73.27-1.67-17.8-2.45-35.81-1.79-53.65.5-13.6,3.92-27.09,5.96-40.64,1.3-8.63,2.9-17.25,3.52-25.94.29-4.04-1.44-8.22-2.25-12.33,1.01-.62,2.48-1,2.95-1.91,3.33-6.36,6.46-12.83,9.66-19.26,1.56-2.39,3.12-4.78,4.68-7.17,2.68,2.56,5.36,5.12,8.2,7.83,2.64-.88,5.4-1.8,9.59-3.2-.96,3.26-1.31,5.45-2.23,7.38-1.83,3.85-4.37,7.41-5.9,11.36-3.13,8.14-5.49,16.57-8.71,24.67-4.17,10.46-5.42,21.35-5.75,32.42-.26,8.74-.56,17.5-.3,26.23.32,10.77.68,21.59,2.03,32.26.92,7.27,3.24,14.43,5.57,21.43,3.12,9.37,6.18,18.86,10.53,27.68,4.16,8.43,8.15,17.2,15.27,23.89,1.26,1.18,1.68,3.23,2.64,4.77,1.37,2.2,2.88,4.31,4.33,6.45-.03.26-.09.51-.2.75-1.97.73-3.94,1.45-5.9,2.18-1.33.42-2.66.85-3.99,1.27-.66.29-1.32.58-1.97.87-.67.09-1.35.19-2.02.28-5.93,1.88-11.87,3.77-17.8,5.65Z"/>
      <path class="cls-15" d="M508.37,110.17c10.34-17.24,22.72-32.65,39.97-43.49,6.09-3.83,12.54-7.07,18.83-10.58,1.31,2.56,3.62,5.07,3.77,7.69.71,12.4,1.2,24.83,1.04,37.25-.15,11.89-.77,23.81-1.98,35.64-.94,9.2-3.09,18.27-4.71,27.4-1.45-4.15-2.56-8.48-4.51-12.39-.95-1.89-3.81-4.51-5.24-4.2-6.29,1.37-5.01-1.97-4-4.56-5.35-2.96-10.46-5.38-15.1-8.5-3.03-2.04-5.34-5.13-8.06-7.66-1.99-1.85-4.26-3.41-6.15-5.35-2.97-3.04-5.54-6.48-8.64-9.37-1.25-1.16-3.45-1.29-5.22-1.89Z"/>
      <path class="cls-17" d="M591.44,285.9c5.35,18.64,7.21,37.73,8,57.06,1.28,31.38-4.08,61.55-15.59,90.59-3.14,7.93-8.21,15.1-12.4,22.62-5.09-1.07-10.19-2.13-15.28-3.2,0,0-.02-.01-.02-.01-.04-.27-.07-.55-.09-.82-.32-1.58-.38-3.26-1.01-4.71-2.78-6.47,1.08-15.27,7.68-17.23-1.48-5.75-.81-6.69,4.34-6.99,4.91-3.9-2.75-11.01,4.77-14.22-.87-.71-1.66-1.35-2.17-1.77,2.15-4.72,4.15-9.12,5.85-12.86-1.69-1.06-2.98-1.87-4.27-2.69.92-1.38,1.64-2.95,2.79-4.08,1.57-1.55,3.46-2.77,5.22-4.13-3.38-4.06-3.32-4.05-2.27-9.93.14-.78-.61-1.72-.95-2.58.25-2.8.47-5.6.76-8.4,1.09-10.35,2.74-20.68,3.15-31.05.39-9.82-.5-19.68-.83-29.53-.32-1.34-.63-2.68-.95-4.02,0-1.99,0-3.98,0-5.97.67-.58,1.54-1.04,1.98-1.76,3.02-4.95,5.75-6.03,11.28-4.31Z"/>
      <path class="cls-3" d="M565.29,164.09c1.61-9.13,3.77-18.2,4.71-27.4,1.21-11.83,1.83-23.75,1.98-35.64.16-12.41-.34-24.85-1.04-37.25-.15-2.63-2.46-5.13-3.77-7.69,5.06-1.49,6.61,2.29,7.67,5.7,5.14,16.44,10.89,32.76,14.76,49.5,5.05,21.86,7.35,44.2,7.26,66.71-.27.63-.54,1.27-.8,1.9-.84.2-1.68.4-3.94.94,2.2.65,3.01.89,3.82,1.13l.43.1.43-.08c-.02,2.97-.04,5.95-.06,8.92-2.39.37-4.78.74-7.11,1.1.12,2.14.21,3.7.42,7.34-4.32-7.24-5.61-.53-8.39-.26-4.4.43-6.15,3.97-7.04,8.03-.27,1.25-1.14,3.01-2.11,3.31-1.23.38-2.88-.39-4.29-.85-1.27-.41-2.45-1.06-3.68-1.6-.17-.28-.34-.55-.51-.83-1.03-1.38-2.05-2.76-3.08-4.14-.3-.3-.6-.61-.9-.91-.6-1.06-1.19-2.12-1.79-3.17.11-1.38.07-2.79.35-4.13,2.18-10.24,4.43-20.47,6.66-30.7ZM584.41,193.83c-.57-.76-.83-1.09-1.08-1.43-.32.25-.95.58-.91.72.14.48.43,1,.83,1.27.17.12.74-.34,1.16-.56ZM570.78,204.69c-.28-.12-.61-.39-.81-.31-.2.08-.26.51-.37.78.28.12.61.39.81.31.2-.08.26-.51.38-.78Z"/>
      <path class="cls-15" d="M87.03,451.37c.67-.09,1.35-.19,2.02-.28.45.41.89.82,1.34,1.23.21-.7.42-1.4.64-2.1,1.33-.42,2.66-.85,3.99-1.27l-.99,7.02c-.64,1.08-1.28,2.15-2.34,3.95,2.2-.49,3.27-.72,4.34-.96.66.67,1.33,1.34,1.99,2.01.18,1.12-.04,2.63.61,3.3,2.77,2.87,5.88,5.42,8.71,8.24,4.08,4.08,8.55,7.92,11.88,12.56,3.54,4.94,6.33,10.12,13.46,10.07.82,0,1.68.94,2.45,1.52,2.56,1.94,5.08,3.91,7.62,5.88-.15,1.9.9,2.8,3.68,3.92,4.45,1.8,8.4,4.84,12.6,7.29.94.55,2.01.98,3.07,1.19,11.05,2.14,21.04,6.31,29.13,14.48.8.81,2.82.58,4.27.57,2.53,0,5.36-1,7.53-.17,5.15,1.98,9.93,4.9,14.96,7.22,4.74,2.18,7.38,6.66,14.08,7.34,8.42.86,16.71,5.67,25.51,7.23,7.05,1.25,14.14,2.27,21.22,3.32,2.98.45,6.52-.16,8.88,1.27,4.77,2.89,9.44,3.42,14.83,2.92,4.46-.42,9.05.51,13.59.85.33.91.67,1.81,1,2.72-12.34-.61-24.72-.72-36.99-1.98-13.12-1.34-26.29-3.05-39.16-5.89-18.44-4.07-36.63-9.29-54.92-14.08-1.69-.44-3.28-1.27-4.92-1.92-.67-.31-1.35-.62-2.02-.94-3.35-1.29-6.69-2.59-10.04-3.88-.76-.64-1.52-1.27-2.29-1.91-1.6-.3-3.19-.61-4.79-.91-.52-1.36-1.04-2.72-1.56-4.08-1.5.57-3,1.15-4.51,1.72-2.62-1.32-5.24-2.64-7.85-3.96-.8-.58-1.59-1.16-2.39-1.74-.88-.29-1.76-.59-2.64-.88-1.19-.52-2.39-1.04-3.58-1.57-.8-.65-1.59-1.29-2.39-1.94-.91-.49-1.82-.98-2.72-1.48-5.77-3.7-11.54-7.4-17.31-11.11-.44-1.35-.72-2.8-1.45-3.96-.18-.29-1.84.35-2.83.56-1.95-1.45-3.91-2.91-5.86-4.36-.84-5.96-3.75-8.24-7.15-5.61-.96-.83-1.93-1.67-2.89-2.5,4.26-2.53,4.21-4.28.28-8.61.75-13.11-7.86-18.93-17.74-23.55,3.18-2.81,5.43-4.78,7.67-6.76Z"/>
      <path class="cls-26" d="M565.29,164.09c-2.23,10.23-4.47,20.46-6.66,30.7-.29,1.34-.24,2.75-.35,4.13-.06.27-.11.54-.13.82-2.01-2.25-4.01-4.51-6.02-6.76-2.99-3.39-5.98-6.78-8.97-10.17-1.63-1.65-3.25-3.31-4.88-4.96-.38-.64-.77-1.28-1.15-1.92-.32-.33-.64-.66-.96-1l-.04-.04c-.32-.33-.64-.65-.97-.98l-.02-.02c-.33-.33-.66-.65-.98-.98l-.02-.02c-.33-.34-.65-.67-.98-1.01-.33-.34-.65-.67-.98-1.01-.34-.33-.68-.67-1.02-1-1.35-1.31-2.7-2.62-4.05-3.93-1.04-1-2.08-1.99-3.12-2.99-7.82-6.36-15.66-12.69-23.45-19.09-1.37-1.12-2.54-2.49-3.8-3.74,3.12-8.93,6.2-17.88,9.41-26.79.42-1.17,1.45-2.11,2.2-3.16,1.77.6,3.97.73,5.22,1.89,3.1,2.88,5.68,6.33,8.64,9.37,1.89,1.94,4.16,3.5,6.15,5.35,2.72,2.53,5.03,5.62,8.06,7.66,4.64,3.12,9.75,5.54,15.1,8.5-1.01,2.59-2.3,5.93,4,4.56,1.43-.31,4.29,2.3,5.24,4.2,1.95,3.9,3.06,8.23,4.51,12.39Z"/>
      <path class="cls-1" d="M317.08,562.7c-.33-.91-.67-1.81-1-2.72,1.59-1,3.08-2.59,4.79-2.89,5.37-.93,11.34,1.74,16.15-2.86.42-.4,1.59-.07,2.41,0,6.71.59,13.42,1.2,20.03,1.8,1.43-8.13,2.5-8.71,9.53-6.75,1.31.37,3.04-.99,4.47-.79,5.06.72,9.8.62,13.7-3.31.16-.16.73-.14.95.01,4.97,3.56,10.31-.42,15.41.72,1.04.23,2.65.11,3.32-.55,3.37-3.28,7.24-2.4,11.23-2.02,1.85.17,4.96-.06,5.5-1.12,3.46-6.83,11.74-4.53,16.35-9.12,2.1-2.1,4.98-3.9,7.82-4.69,7.09-1.97,14.09-3.73,19.45-9.34,1.14-1.19,3.3-1.39,4.98-2.09.98-.41,2.37-.66,2.81-1.43,2.91-5,7.79-6.99,12.87-8.48,3.86-1.14,5.76-2.97,4.29-7.1h0c5.63,1.94,9.25-.91,13.46-4.42,7.81-6.5,15.87-12.58,21.7-21.1.96-1.4,2.78-2.21,4.37-3.43-.15-1.16-.33-2.6-.51-4.05,3.46-3.35,8.28-5.27,10.17-10.31.92-2.47,2.62-4.64,3.96-6.95.97.08,1.94.16,2.91.25.39.27.78.54,1.16.8l.06-.08c.34,1.34.68,2.68,1.06,4.15,2.27-.76,3.98-1.33,5.69-1.9,0,0,.02.01.02.01-.86,1.63-1.44,4.42-2.61,4.7-5.78,1.36-7.63,5.42-8.79,10.48-.24,1.07-2.12,2.8-2.63,2.6-5.09-1.95-4.74,2.28-5.97,4.87-.91,1.91-1.66,4.51-3.25,5.35-3.71,1.94-4.87,5.08-5.77,8.63-.28,1.11-.55,2.22-.83,3.34h-1.2c-.57-1.51-1.14-3.03-1.72-4.55l-1.12-.11c-.37,1.77-.74,3.54-1.15,5.5-1.31.15-2.77.31-4.27.48-1.5,4.15-2.94,8.28-8.71,5.96-.5-.2-1.45,0-1.84.39-2.65,2.52-5.19,5.15-7.8,7.71-3.83,3.77-7.58,7.62-11.57,11.22-3.11,2.81-7.17,4.8-9.59,8.06-1.84,2.48-3.37,3.74-6.33,4.62-2.48.74-6.47.87-6.77,5.08-15.62,6.16-31.4,11.75-48.01,14.73-8.25,1.48-16.45,3.25-24.7,4.76-3.07.56-6.22.73-9.33,1.08-.3-.82-.61-1.64-1.42-3.85-.33,2.4-.46,3.33-.59,4.25-1.04.24-2.07.48-3.11.72-.16-1.21-.32-2.41-.51-3.93-2.99.98-5.49,1.76-7.96,2.61-2.52.87-5.03,1.81-7.54,2.71-.67.17-1.35.34-2.02.52-1.05-1.59-2.08-2.95-2.97.1-.67-.03-1.33-.05-2-.08-1.35-5.48-5.24-.73-7.78-1.75-.59-.24-2.12,1.85-3.22,2.87l-1.95.11c-.53-.67-1.07-1.35-1.6-2.02-.49.7-.98,1.39-1.48,2.09-1.66.13-3.31.26-4.97.38-.83-1.23-1.65-2.45-2.48-3.68-.4.22-.8.44-1.2.66v3.25c-4.11-.04-8.22-.09-12.33-.13Z"/>
      <path class="cls-19" d="M149.9,137.58c10.71-6.23,21.25-12.79,32.2-18.58,8.02-4.24,16.59-7.46,24.91-11.14,2.06-.64,4.12-1.28,6.18-1.92.48.1,1.12.03,1.41.31,5.99,6.08,12.66,5.01,18.97,1.16,11.75-7.16,24.84-10.3,38.05-12.15,16.39-2.29,33-2.94,49.52-4.3-.27,3.67-.54,7.34-.8,11.01-12.04.66-24.12.99-36.12,2.11-8,.75-15.97,2.32-23.82,4.11-8.43,1.92-16.75,4.4-25.04,6.89-7.37,2.21-14.69,4.63-21.94,7.18-7.83,2.75-15.57,5.77-23.35,8.68-2.57-1.7-5.04-1.78-8.2-1.04-4.81,1.14-9.91,1.44-14.87,1.31-2.4-.06-3.29.28-4.49,2.35-2.5,4.33-8.59,6.02-12.59,4.01Z"/>
      <path class="cls-6" d="M320.33,101.97c.27-3.67.54-7.34.8-11.01,10.06.36,20.25-.11,30.17,1.29,13.26,1.87,26.48,4.57,39.39,8.12,6.98,1.92,13.03,7.06,19.96,9.33,3.51,1.15,8.09-.68,12.12-1.49,1.52-.31,2.85-1.55,4.27-2.36,1.98.75,3.97,1.49,5.95,2.24,5.86,2.52,11.76,4.97,17.57,7.6,1.74.79,3.23,2.11,4.83,3.19-1.42,1.19-3.32,2.13-4.14,3.65-1.18,2.18-1.58,4.78-2.55,7.98-2.94-1.3-5.22-2.43-7.59-3.33-7.35-2.81-14.7-5.6-22.1-8.26-6.3-2.26-12.57-4.77-19.05-6.37-8-1.97-16.17-3.29-24.32-4.58-8.96-1.41-17.96-2.68-26.98-3.61-7.35-.76-14.76-.91-22.13-1.41-3.61-.24-4.53,1.56-4.52,4.84.04,10.47-.13,20.94-.21,31.41-.53-.69-1.07-1.37-1.61-2.05.1-1.88.2-3.76.3-5.63,0,0,0-.14,0-.14.01-1.97.03-3.93.04-5.9.1-.18.17-.36.22-.56-.01-2.68-.03-5.36-.04-8.03.27-.31.25-.59-.05-.86.02-2.05.05-4.1.07-6.15.04-.62.08-1.24.12-1.86,0-.71,0-1.42,0-2.13-.01-.62-.03-1.25-.04-1.87-.16-.67-.32-1.35-.48-2.02Z"/>
      <path class="cls-26" d="M464.24,537.3c.3-4.21,4.29-4.34,6.77-5.08,2.96-.88,4.49-2.15,6.33-4.62,2.42-3.26,6.48-5.25,9.59-8.06,3.98-3.6,7.74-7.46,11.57-11.22,2.61-2.56,5.15-5.2,7.8-7.71.4-.38,1.35-.59,1.84-.39,5.77,2.32,7.21-1.81,8.71-5.96,1.5-.17,2.96-.33,4.27-.48.41-1.96.78-3.73,1.15-5.5l1.12.11c.57,1.52,1.14,3.04,1.72,4.56h1.2c.28-1.13.55-2.24.83-3.35.9-3.55,2.06-6.69,5.77-8.63,1.59-.83,2.34-3.44,3.25-5.35,1.23-2.59.88-6.82,5.97-4.87.5.19,2.38-1.54,2.63-2.6,1.16-5.06,3.01-9.13,8.79-10.48,1.17-.28,1.76-3.07,2.61-4.7,5.09,1.07,10.19,2.13,15.28,3.2-5.52,10.49-12.88,19.58-21.4,27.75-5.95,5.71-11.67,11.76-18.2,16.72-12.99,9.87-26.27,19.39-41.54,25.66-8.73,3.58-17.38,7.34-26.07,11.01Z"/>
      <path class="cls-11" d="M591.44,285.9c-5.54-1.73-8.26-.65-11.28,4.31-.44.72-1.31,1.18-1.98,1.76-2.16-9.56-4.21-19.15-6.58-28.66-.49-1.98-2.23-3.64-3.4-5.45-.44-2.99-.29-6.24-1.45-8.91-1.69-3.88-4.34-7.35-6.58-10.99,4.71-1.01,2.6-3.79,1.42-6.49,5.13-.7,4.64-4.15,3.78-7.33,2.36-1.91,4.43-3.58,6.5-5.26.64,1.08,1.27,2.15,1.91,3.23,5.7,10.52,11.39,21.04,17.09,31.56-2.57,10.79-3.17,21.55.58,32.22Z"/>
      <path class="cls-26" d="M479.23,600.12c.4-3.56-1.19-5.9-3.69-8.51-3.25-3.39-5.41-7.81-8.01-11.81-2.87-4.41-5.71-8.85-8.57-13.28,6.21-2.21,12.43-4.41,19.34-6.87,4.51,10.11,8.98,20.15,13.46,30.19-3.88,3.53-7.75,7.05-11.63,10.58-.28-.16-.58-.27-.9-.31Z"/>
      <path class="cls-23" d="M65.84,222.85c-1.56,2.39-3.12,4.78-4.68,7.17-.67-1.59-1.35-3.19-2.03-4.81-1.45-.3-2.88-.59-2.92-.6-1.52,2.44-2.56,4.06-3.56,5.72-.91,1.52-1.76,3.08-2.64,4.62,0,0,0,0,0,0-1.04-1.43-2.09-2.86-3.13-4.28-1.18-8.91-2.35-17.83-3.53-26.74.9.53,1.75,1.22,2.72,1.56,1.37.48,2.82.69,5.09,1.22-1.94-2.7-2.93-4.07-3.92-5.45,1.53-.56,3.07-1.12,5.32-1.95-1.86,8.54,7.35,4.7,8.27,10.59,3.21-4.6,6.33-4.82,10.05-2.29,1.06.72,2.89.32,4.37.44l-9.41,14.82ZM60.91,223.85c.21-.29.42-.59.63-.88-.58-.27-1.15-.54-1.73-.82-.11.2-.22.41-.34.61.48.36.96.72,1.44,1.08Z"/>
      <path class="cls-8" d="M590.86,253.68c-5.7-10.52-11.39-21.04-17.09-31.56,1.27-.68,2.63-2.05,3.81-1.92,7.19.8,6.85-5.61,9.03-9.37,1.22-2.11.57-2.16,2.71-1.07,2.03,1.03,4.36,1.47,6.56,2.16-.44,5.5-.69,11.03-1.37,16.5-1.05,8.44-2.41,16.84-3.64,25.26ZM586.89,218.04c.36.32.73.63,1.09.95,1.01-1.2,2.31-2.27,2.91-3.64.34-.77-.47-2.05-.76-3.09-.52.52-1.03,1.04-1.55,1.56-.57,1.41-1.13,2.81-1.7,4.22Z"/>
      <path class="cls-26" d="M87.03,451.37c-2.24,1.98-4.49,3.95-7.67,6.76,9.88,4.62,18.49,10.44,17.74,23.55,3.93,4.33,3.97,6.08-.28,8.61-9.1-10.61-18.21-21.21-27.29-31.84-.28-.33-.21-.95-.3-1.43,5.93-1.88,11.87-3.77,17.8-5.65Z"/>
      <path class="cls-23" d="M595.87,211.92c-2.2-.7-4.53-1.13-6.56-2.16-2.14-1.09-1.49-1.04-2.71,1.07-2.17,3.76-1.84,10.17-9.03,9.37-1.18-.13-2.54,1.24-3.81,1.92-.64-1.08-1.27-2.15-1.91-3.23-2.68-3.64-5.35-7.29-8.03-10.94.24.03.48.04.72.03,1.22.54,2.41,1.2,3.68,1.6,1.41.45,3.06,1.23,4.29.85.97-.3,1.83-2.06,2.11-3.31.89-4.06,2.64-7.61,7.04-8.03,2.79-.27,4.07-6.97,8.39.26-.21-3.64-.3-5.2-.42-7.34,2.33-.36,4.72-.73,7.11-1.1-.07,4.39-.15,8.78-.22,13.18-.97.16-1.95.33-2.92.49.01.28.03.56.04.84.9.16,1.79.32,2.69.49-.16,2-.31,4.01-.47,6.01ZM580.87,206.92c.18.36.33.82.42.81.45-.05.88-.24,1.32-.37-.18-.35-.38-1-.53-.98-.41.03-.8.34-1.21.54ZM580.71,215.67c-.27-.12-.54-.24-.81-.35-.12.27-.38.6-.31.8.08.19.5.25.77.37.12-.27.23-.54.35-.81Z"/>
      <path class="cls-26" d="M155.27,574.98c3.59.35,7.21.51,10.74,1.16,1.11.2,2.69,1.58,2.85,2.61.8,5.16-3.57,15.62-11.31,17.45-2.82-2.41-5.64-4.82-8.46-7.23,2.06-4.66,4.12-9.32,6.18-13.99Z"/>
      <path class="cls-25" d="M471.08,72.8c3.09-1.89,6.13-3.86,9.27-5.65,19.69-11.2,40.02-21.09,61.79-27.53,5.38-1.59,11.36-3.88,17.29-.02-2.95.23-6.05-.04-8.82.78-9.66,2.88-19.49,5.49-28.74,9.42-12.33,5.24-24.24,11.5-36.2,17.58-3.47,1.76-6.44,4.48-9.75,6.58-1.04.66-2.45.72-3.69,1.06-.38-.74-.76-1.48-1.14-2.22Z"/>
      <path class="cls-24" d="M471.08,72.8c.38.74.76,1.48,1.14,2.22-9.7,7.63-19.5,15.14-29.05,22.96-3.68,3.01-6.8,6.72-10.18,10.11-1.98-.75-3.97-1.49-5.95-2.24,3.82-3.59,7.34-7.59,11.52-10.7,10.19-7.59,20.67-14.78,31.06-22.1.36-.26.97-.17,1.47-.24Z"/>
      <path class="cls-12" d="M50,234.94c.88-1.54,1.73-3.09,2.64-4.62.99-1.66,2.04-3.29,3.56-5.72.04,0,1.47.3,2.92.6.69,1.62,1.36,3.22,2.03,4.81-3.19,6.43-6.32,12.9-9.66,19.26-.47.9-1.94,1.28-2.95,1.91-.82-5.36-1.74-10.72-2.4-16.1-.17-1.42.46-2.95.72-4.43,1.04,1.43,2.09,2.86,3.13,4.28.14.08.28.15.42.23-.14-.08-.28-.15-.42-.23Z"/>
      <path class="cls-26" d="M213.18,105.94c-2.06.64-4.12,1.28-6.18,1.92-8.4-8.03-16.85-16.01-25.17-24.11-1.8-1.75-3.16-3.96-4.73-5.96,4.8,3.1,9.79,5.95,14.35,9.37,6.81,5.12,13.34,10.62,19.93,16.04.81.66,1.21,1.81,1.8,2.74Z"/>
      <path class="cls-9" d="M149.09,588.97c2.82,2.41,5.64,4.82,8.46,7.23,1.16,1.25,2.33,2.51,3.49,3.76.32.7.65,1.39.97,2.09h-18.1c1.75-4.42,3.46-8.75,5.17-13.08Z"/>
      <path class="cls-26" d="M178.55,565.82c-6.56.37-13.11.74-19.67,1.11.89-2.45,1.78-4.9,2.88-7.92,5.89,2.39,11.34,4.6,16.78,6.81Z"/>
      <path class="cls-15" d="M361.08,560.38c2.51-.91,5.01-1.84,7.54-2.71,2.47-.85,4.97-1.63,7.96-2.61.2,1.51.36,2.72.51,3.93-5.34.46-10.68.93-16.01,1.39Z"/>
      <path class="cls-15" d="M343.08,562.04c1.1-1.02,2.63-3.11,3.22-2.87,2.54,1.03,6.43-3.73,7.78,1.75-3.67.37-7.33.74-11,1.12Z"/>
      <path class="cls-26" d="M99.71,492.78c3.4-2.63,6.31-.35,7.15,5.61-2.38-1.87-4.77-3.74-7.15-5.61Z"/>
      <path class="cls-26" d="M155.89,528.83c1.5-.57,3-1.15,4.51-1.72.52,1.36,1.04,2.72,1.56,4.08-2.02-.79-4.04-1.57-6.06-2.36Z"/>
      <path class="cls-26" d="M112.72,502.75c.98-.21,2.64-.85,2.83-.56.73,1.16,1.01,2.62,1.45,3.96-1.43-1.13-2.85-2.27-4.28-3.4Z"/>
      <path class="cls-15" d="M329.41,562.83v-3.25c.4-.22.8-.44,1.2-.66.83,1.23,1.65,2.45,2.48,3.68-1.23.08-2.45.15-3.68.23Z"/>
      <path class="cls-15" d="M338.05,562.22c.49-.7.98-1.39,1.48-2.09.53.67,1.07,1.35,1.6,2.02-1.03.02-2.05.05-3.08.07Z"/>
      <path class="cls-26" d="M596.81,182l-.43.08s-.43-.1-.43-.1c.04-.69.08-1.38.12-2.07.27-.63.54-1.27.8-1.9-.02,1.33-.04,2.66-.06,3.99Z"/>
      <path class="cls-15" d="M356.09,561c.89-3.06,1.92-1.69,2.97-.1l-2.97.1Z"/>
      <path class="cls-15" d="M380.2,558.27c.13-.92.26-1.84.59-4.25.81,2.2,1.12,3.02,1.42,3.85-.67.13-1.34.27-2.01.4Z"/>
      <path class="cls-8" d="M596.34,205.91c-.9-.16-1.79-.32-2.69-.49-.01-.28-.03-.56-.04-.84.97-.16,1.95-.33,2.92-.49-.06.61-.12,1.21-.19,1.82Z"/>
      <path class="cls-9" d="M164.08,604.51c.91.85,1.83,1.7,2.74,2.54-.91-.85-1.83-1.7-2.74-2.54Z"/>
      <path class="cls-26" d="M184.45,567.83c-1.14-.42-2.29-.83-3.43-1.25,1.14.42,2.29.83,3.43,1.25Z"/>
      <path class="cls-26" d="M139.42,520.68c1.19.52,2.39,1.04,3.58,1.57-1.19-.52-2.39-1.04-3.58-1.57Z"/>
      <path class="cls-26" d="M179.07,537.89c.67.31,1.35.62,2.02.94-.67-.31-1.35-.62-2.02-.94Z"/>
      <path class="cls-26" d="M145.64,523.13c.8.58,1.59,1.16,2.39,1.74-.8-.58-1.59-1.16-2.39-1.74Z"/>
      <path class="cls-26" d="M166.74,532.1c.76.64,1.52,1.27,2.29,1.91-.76-.64-1.52-1.27-2.29-1.91Z"/>
      <path class="cls-26" d="M134.31,517.27c.91.49,1.82.98,2.72,1.48-.91-.49-1.82-.98-2.72-1.48Z"/>
      <path class="cls-6" d="M457.21,118.97c-.39,0-.77,0-1.16-.01.39,0,.77,0,1.16.01Z"/>
      <path class="cls-28" d="M100.92,446.77c.11-.24.18-.49.2-.75,15.3-6.95,31.03-13.1,45.77-21.08,14.9-8.06,29.08-17.54,43.03-27.19,6.12-4.23,10.88-10.42,16.26-15.72,4.5-2.05,9.45-3.46,13.41-6.27,16.18-11.48,23.2-27.38,22.86-47.25-.41-23.79-16.16-44.32-39.25-49.65,1.3-.53,2.55-1.21,3.89-1.57,7.67-2.06,15.6-3.42,23-6.18,18.02-6.71,34.04-16.71,47.82-30.34,12.87-12.74,22.97-27.48,29.12-44.26,5.14-14.03,7.72-29,11.43-43.55.78-.67,1.56-1.34,1.99-1.72.69,1.48,1.44,3.08,2.18,4.67.06.73.13,1.45.19,2.17.83,3.97,1.66,7.94,2.5,11.9.13.71.26,1.41.4,2.12.59,2.29,1.18,4.57,1.78,6.86.13.7.25,1.4.38,2.1,1.54,4.29,3.08,8.58,4.61,12.87.24.99.47,1.98.71,2.97,1.56,3.33,3.11,6.67,4.67,10,.22.25.36.53.4.86.49.72.98,1.44,1.46,2.16.23.58.45,1.16.67,1.75.45.78.89,1.55,1.34,2.33,0,0,.18.29.18.29.59.89,1.17,1.78,1.76,2.66.18.3.37.6.55.89.46.71.92,1.42,1.39,2.13.17.34.34.68.52,1.02,1.17,1.65,2.34,3.3,3.51,4.95.17.34.33.69.5,1.03.25.3.5.6.75.9.38.52.76,1.03,1.13,1.54.15.21.32.39.53.54,2.2,2.4,4.39,4.81,6.59,7.21.24.23.48.45.72.68,1.09,1.26,2.19,2.51,3.28,3.76,0,0,.34.28.34.28.54.53,1.09,1.06,1.63,1.59,0,0,.28.36.28.36,17.5,16.32,38.03,26.88,61.29,32.21,1.73.4,3.59.26,5.39.38,1.33.19,2.66.37,3.99.56.06.61.11,1.22.17,1.82-9.45,2.71-17.83,7.09-24.04,15.06,1.52.38,2.75.17,3.98-.09,9.18-1.89,17.88-1.42,24.45,6.3,5.38,6.32,5.98,15.93,1.89,22.31-4.6,7.16-12.61,9.31-19.78,7.97-8.03-1.5-14.66-6.34-15.4-17.82-.18-2.78-.03-5.58-.03-8.38-2.16.92-3.33,2.05-4.01,3.42-8.56,17.07-7.5,33.97,1.3,50.56,6.41,12.09,16.87,19.4,29.45,24.01,3.61,3.75,6.88,7.93,10.91,11.17,7.98,6.4,16,12.89,24.69,18.23,10.22,6.28,21.14,11.45,31.82,16.97,5.43,2.81,10.99,5.35,16.5,7.98,6.7,3.18,13.42,6.32,20.14,9.48-.29,2.1.12,4.73-1,6.18-2.53,3.28-5.64,6.2-8.83,8.88-5.25,4.4-9.78,9.5-15.89,13.1-5.84,3.44-10.18,9.34-15.86,13.12-6.57,4.37-13.87,7.68-20.93,11.29-1.46.75-3.7.29-4.87,1.25-7.42,6.11-16.68,8.09-25.25,11.57-5.42,2.2-11.11,3.72-16.68,5.55-2.96.97-5.88,2.04-8.87,2.88-4.33,1.22-9.42.19-12.77,4.39-.29.37-1.2.28-1.83.34-3.9.39-7.83.57-11.69,1.16-8.64,1.32-17.2,3.3-25.87,4.15-12.12,1.18-24.32,1.88-36.5,2.22-11.84.33-23.7-.01-35.55-.12-4.7-.04-9.46.18-14.08-.47-8.67-1.22-17.28-2.9-25.87-4.58-7.02-1.37-14.02-2.88-20.97-4.56-5.97-1.45-11.87-3.18-17.77-4.89-3.59-1.04-7.12-2.31-10.69-3.41-4.68-1.45-9.48-2.59-14.06-4.32-7.15-2.71-14.16-5.81-21.22-8.75-1.78-.87-3.6-1.67-5.34-2.61-3.9-2.1-7.85-4.11-11.61-6.43-5.98-3.68-11.81-7.61-17.74-11.39-1.48-.94-3.07-1.69-4.62-2.53-2.14-1.03-3.44-3.17-5.17-4.88-3.65-3.6-7.42-7.09-11.34-10.39-2.18-1.84-4.76-3.2-7.16-4.77-2.38-3.73-4.76-7.47-7.15-11.2ZM320.62,433.04c1.47,1.83,2.97,4.03,4.81,5.9,17.02,17.3,53.81,13.43,64.81-12.42,2.62-6.16,5.09-12.31,1.72-19.07-1.92-3.84-5.09-6.08-9.11-5.83-4.13.26-7.55,2.45-8.71,6.98-.73,2.86-1.22,5.83-2.36,8.53-3.61,8.56-10.38,12.78-19.53,12.77-9.37,0-16.84-5.47-19.76-14.67-1.42-4.48-1.71-9.32-2.49-13.81,3.37-1.71,6.17-2.84,8.67-4.45,6.47-4.18,10.03-10.21,9.45-17.95-.52-6.92-4.83-11.85-11.11-14-11.29-3.87-22.98-4.29-34.19.26-12.49,5.08-14.95,19.55-5.02,28.78,3.18,2.95,7.35,4.84,12.12,7.88-.89,4.16-1.44,9.44-3.18,14.3-5.17,14.42-22.78,18.14-34.12,7.74-4.61-4.23-5.2-9.77-6.49-15.18-1.64-6.9-9.14-9.57-14.7-5.1-4.94,3.97-5.32,9.34-4.06,14.98,6.11,27.39,37.48,38.04,58.82,26.02,5.18-2.92,9.41-7.53,14.43-11.66Z"/>
      <path class="cls-7" d="M436.08,277c-1.33-.18-2.66-.37-3.99-.56-1.4-.83-2.85-1.6-4.19-2.52-1.62-1.11-4.65-3.09-4.49-3.41,2.19-4.42-.59-8.61-.2-12.83.11-1.24,1.17-3.31,2-3.41,7.05-.87,6.61-7.8,9.83-11.71,1.17-1.42,2.07-3.65,3.54-4.12,3.8-1.21,5.28-3.65,4.46-7.14-1.59-6.79,5.38-10.34,5.77-16.3,7.14-1.92,5.81-7.88,6.48-13.05.15-1.13,1.92-2.7,3.14-2.93,4.62-.84,5.8-3.8,5.68-7.86-.33-11.27-.23-22.58-1.18-33.79-.5-5.95,3.55-8.1,7.02-10.23,1.48-.9,5.43.99,7.54,2.57,9.96,7.45,20.35,13.95,32.45,17.44,1.57.45,2.78,2.17,4.37,3.48,5.56-2.1,1.48-6.68,2.27-10.69,2.63,1.07,5.03,2.04,7.42,3.01,1.04,1,2.08,1.99,3.12,2.99-2.69,5.9-3.19,8.02-2.68,11.32-2.17-.72-4.39-1.46-8.24-2.74,4.38,7.96-.33,10.57-5.18,13.13-.42.22-.74.67-1.07,1.04-3.7,4.18-7.39,8.36-11.44,12.95.41,2.68-5.44,14.3-9.04,14.8-8.92,1.22-9.17,9.59-10.71,14.68-1.66,5.5-3.69,8.59-8.47,10.84-1.62.76-3.81,2.38-3.96,3.79-.44,4.19-2.83,5.98-6.33,7.38-7.01,2.82-10.79,9.75-10.06,17.24.33,3.37-.69,6.29-4.93,6.45-.63.03-1.26.05-1.9.08-.67.02-1.33.03-2,.05-1.69.01-3.37.03-5.06.04Z"/>
      <path class="cls-15" d="M322.64,155.91c-.74-1.6-1.49-3.19-2.18-4.67-.44.38-1.21,1.05-1.99,1.72.57-5.27,1.14-10.55,1.71-15.83.54.68,1.07,1.37,1.61,2.05.28,5.58.57,11.15.85,16.73Z"/>
      <path class="cls-15" d="M332.5,193.94c-1.54-4.29-3.08-8.58-4.61-12.87,1.54,4.29,3.08,8.58,4.61,12.87Z"/>
      <path class="cls-15" d="M325.33,169.99c-.83-3.97-1.66-7.94-2.5-11.9.83,3.97,1.66,7.94,2.5,11.9Z"/>
      <path class="cls-15" d="M337.88,206.91c-1.56-3.33-3.12-6.67-4.67-10,1.56,3.34,3.11,6.67,4.67,10Z"/>
      <path class="cls-15" d="M327.51,178.97c-.59-2.29-1.18-4.58-1.78-6.86.59,2.29,1.18,4.58,1.78,6.86Z"/>
      <path class="cls-15" d="M349.67,225.96c-1.17-1.65-2.34-3.3-3.51-4.95,1.17,1.65,2.34,3.3,3.51,4.95Z"/>
      <path class="cls-15" d="M343.7,216.97c-.59-.89-1.17-1.78-1.76-2.66.58.89,1.17,1.78,1.76,2.66Z"/>
      <path class="cls-15" d="M341.76,214.02c-.45-.78-.9-1.55-1.34-2.33.45.78.9,1.55,1.34,2.33Z"/>
      <path class="cls-15" d="M339.75,209.94c-.49-.72-.98-1.44-1.46-2.16.49.72.98,1.44,1.46,2.16Z"/>
      <path class="cls-15" d="M345.64,219.99c-.46-.71-.93-1.42-1.39-2.13.46.71.93,1.42,1.39,2.13Z"/>
      <path class="cls-15" d="M363.5,241.9s-.34-.29-.34-.28c0,0,.33-.07.33-.07v.35Z"/>
      <path class="cls-15" d="M365.41,243.86s-.28-.37-.28-.36c0,0,.36.02.36.02l-.08.34Z"/>
      <path class="cls-15" d="M350.91,227.89c-.25-.3-.5-.6-.75-.9.25.3.5.6.75.9Z"/>
      <path class="cls-15" d="M352.58,229.97c-.21-.15-.38-.34-.53-.54.18.18.35.36.53.54Z"/>
      <path class="cls-15" d="M359.89,237.86c-.24-.23-.48-.46-.72-.68.24.23.48.45.72.68Z"/>
      <path class="cls-13" d="M320.18,137.13c-.57,5.28-1.14,10.55-1.71,15.83-3.71,14.55-6.29,29.52-11.43,43.55-6.15,16.78-16.25,31.52-29.12,44.26-13.77,13.63-29.8,23.63-47.82,30.34-7.41,2.76-15.33,4.12-23,6.18-1.34.36-2.6,1.04-3.89,1.57-.5.02-1.01.12-1.49.05-18.4-2.87-34.89.04-48.01,14.76-9.06,10.16-13.97,21.83-14.62,35.29-.71,14.65,4.43,27.25,13.84,38.34,8.42,9.93,19.51,14.84,31.99,16.07,6.98.69,14.17-.82,21.27-1.34-5.38,5.3-10.14,11.49-16.26,15.72-13.95,9.65-28.14,19.13-43.03,27.19-14.74,7.98-30.48,14.13-45.77,21.08-1.45-2.15-2.96-4.25-4.33-6.45-.96-1.55-1.38-3.59-2.64-4.77-7.12-6.68-11.11-15.46-15.27-23.89-4.35-8.81-7.41-18.31-10.53-27.68-2.33-7-4.64-14.16-5.57-21.43-1.36-10.67-1.71-21.49-2.03-32.26-.26-8.73.04-17.49.3-26.23.33-11.07,1.58-21.95,5.75-32.42,3.22-8.1,5.58-16.53,8.71-24.67,1.52-3.96,4.06-7.51,5.9-11.36.91-1.92,1.27-4.11,2.23-7.38-4.19,1.4-6.94,2.32-9.59,3.2-2.83-2.71-5.51-5.27-8.2-7.83l9.41-14.82c2.33-3.25,4.65-6.5,6.98-9.75,4.27-4.78,8.55-9.56,12.82-14.33,3.68.19,7.32.45,9.35-3.72.33-.68,1.64-1.07,2.56-1.25,3.7-.73,7.43-1.33,9.44-1.69,3.3-2.53,5.27-4.76,7.75-5.81,5.87-2.48,11.69-4.79,14.19-10.65,2.33-.31,4.48-.04,6-.9,4.81-2.72,9.43-5.79,14.03-8.85,4.19-2.78,8.06-6.1,12.44-8.52,5.52-3.05,11.45-5.34,17.08-8.21,1.03-.52,1.45-2.24,2.15-3.41,7.78-2.9,15.52-5.92,23.35-8.68,7.26-2.55,14.57-4.98,21.94-7.18,8.29-2.48,16.61-4.96,25.04-6.89,7.85-1.79,15.82-3.36,23.82-4.11,12-1.12,24.07-1.45,36.12-2.11.16.67.32,1.35.48,2.02.01.62.03,1.25.04,1.87,0,.71,0,1.42,0,2.13-.04.62-.08,1.24-.12,1.86-.02,2.05-.05,4.1-.07,6.15-.09.09-.26.2-.25.26.07.21.19.4.3.6.01,2.68.03,5.36.05,8.02-.02-.06-.04-.11-.06-.16-.05.25-.1.49-.16.74-.01,1.97-.03,3.93-.04,5.9,0,0,0,.14,0,.14-.1,1.88-.2,3.76-.3,5.63Z"/>
      <path class="cls-1" d="M74.96,167.95c-.97-5.81-2-11.61-2.9-17.44-3.91-25.38-3.13-50.95-2.99-76.48.02-3.78.5-7.61,1.2-11.33.98-5.18,3.96-7.03,8.58-4.56,7.12,3.81,14.54,7.63,20.48,12.95,9.59,8.59,18.42,18.1,26.9,27.82,4.05,4.64,6.55,10.64,9.75,16.03-5.25-2.16-8.63,1.96-12.69,3.79-6.84,3.08-12.89,7.23-17.88,12.92-.63.72-2.39.33-3.47.81-2.68,1.18-5.7,2.09-7.79,3.99-2.93,2.65-4.57,7-7.77,9.02-6.48,4.09-8.22,9.77-8.51,16.77-.08,1.94-1.89,3.81-2.91,5.71Z"/>
      <path class="cls-26" d="M74.96,167.95c1.02-1.9,2.83-3.77,2.91-5.71.29-7,2.04-12.68,8.51-16.77,3.2-2.02,4.84-6.37,7.77-9.02,2.09-1.9,5.11-2.81,7.79-3.99,1.08-.48,2.84-.09,3.47-.81,4.99-5.69,11.04-9.83,17.88-12.92,4.06-1.83,7.44-5.95,12.69-3.79,4.62,8.04,8.22,16.4,8.34,25.89-6.55,5-13.45,9.61-19.58,15.08-10.16,9.06-19.83,18.66-29.71,28.03-4.27,4.78-8.55,9.56-12.82,14.33-1.47-5.16-3.11-10.28-4.36-15.5-1.18-4.89-1.95-9.88-2.9-14.83Z"/>
      <path class="cls-24" d="M95.04,183.95c9.88-9.37,19.55-18.98,29.71-28.03,6.13-5.47,13.03-10.08,19.58-15.08,1.86-1.08,3.71-2.17,5.57-3.25,4.01,2.01,10.09.32,12.59-4.01,1.2-2.07,2.09-2.41,4.49-2.35,4.96.13,10.07-.18,14.87-1.31,3.16-.75,5.63-.66,8.2,1.04-.7,1.17-1.12,2.89-2.15,3.41-5.63,2.87-11.56,5.16-17.08,8.21-4.38,2.42-8.25,5.74-12.44,8.52-4.61,3.06-9.22,6.14-14.03,8.85-1.52.86-3.67.59-6,.9-2.51,5.86-8.33,8.17-14.19,10.65-2.48,1.05-4.45,3.28-7.75,5.81-2.02.35-5.74.95-9.44,1.69-.92.18-2.23.57-2.56,1.25-2.04,4.17-5.68,3.91-9.35,3.72Z"/>
      <path class="cls-23" d="M60.12,201.74c-.76.47-1.3,1.05-1.69.97-.49-.11-1.11-.72-1.18-1.2-.06-.34.75-1.17,1.07-1.13.53.08.97.69,1.8,1.36Z"/>
      <path class="cls-23" d="M54.18,197.19c.03.12.13.33.09.36-.11.09-.27.1-.41.14-.03-.12-.13-.33-.09-.36.11-.09.27-.1.41-.14Z"/>
      <path class="cls-12" d="M100.92,446.77c2.38,3.73,4.76,7.47,7.14,11.2.09.76-.06,1.68.32,2.26,2.14,3.29,4.42,6.5,6.64,9.74-4.07,1.11-10.67-5.14-11-9.95-1.99.32-4,.64-6.01.96-.66-.67-1.33-1.34-1.99-2.01-.67-1-1.33-2-2-2.99l.99-7.02c1.97-.73,3.94-1.45,5.9-2.18Z"/>
      <path class="cls-26" d="M91.03,450.22c-.21.7-.42,1.4-.64,2.1-.45-.41-.89-.82-1.34-1.23.66-.29,1.32-.58,1.97-.87Z"/>
      <path class="cls-21" d="M538.11,445.99c-6.71-3.16-13.43-6.3-20.13-9.48-5.52-2.62-11.08-5.17-16.5-7.98-10.68-5.52-21.6-10.69-31.82-16.97-8.69-5.34-16.71-11.83-24.69-18.23-4.03-3.23-7.3-7.41-10.91-11.17,2.62.32,5.27.5,7.87.97,29.99,5.45,57.54-20.62,58.33-48.7.22-7.79-1.99-15.64-3.09-23.47,2.57-.96,5.14-1.91,7.67-2.85-.23-6.63,1.81-8.1,8.13-5.74,3.73,1.39,5.97.11,7.68-3.27.63-1.25,2.09-3.01,3.14-2.99,9.62.17,13.48-8.17,19.04-13.4,2.65-2.5,2.42-8.07,7.99-8.3.41-.02.95-.91,1.15-1.5,1.7-5.19,5.35-7.16,9.34-6.44,1.68-2.17,2.78-3.61,3.91-5.03.98-1.21,2-2.38,3.01-3.57,1.17,1.81,2.91,3.47,3.4,5.45,2.38,9.51,4.42,19.1,6.58,28.66,0,1.99,0,3.98,0,5.97.32,1.34.63,2.68.95,4.02.33,9.84,1.23,19.71.83,29.53-.41,10.38-2.06,20.7-3.15,31.05-.29,2.8-.51,5.6-.76,8.4-1.06,2.81-2.3,5.57-3.16,8.44-7.21,24.1-17.19,46.78-33.76,66.1-.34.17-.69.35-1.03.52Z"/>
      <path class="cls-11" d="M539.14,445.47c16.57-19.32,26.54-42,33.76-66.1.86-2.87,2.1-5.63,3.16-8.44.34.86,1.09,1.8.95,2.58-1.05,5.89-1.1,5.88,2.27,9.93-1.76,1.37-3.66,2.59-5.22,4.13-1.15,1.14-1.88,2.71-2.79,4.08,1.29.81,2.58,1.63,4.27,2.69-1.7,3.74-3.71,8.14-5.85,12.86.51.42,1.3,1.06,2.17,1.77-7.53,3.21.13,10.32-4.77,14.22-5.16.31-5.82,1.24-4.34,6.99-6.61,1.96-10.46,10.75-7.68,17.23.62,1.45.69,3.13,1.01,4.71-2.22-.48-4.44-.95-6.66-1.43,0,0-.06.08-.06.08-.39-.27-.77-.54-1.16-.81-.97-.08-1.94-.16-2.91-.25-2.04-1.42-4.08-2.84-6.13-4.26Z"/>
      <path class="cls-26" d="M549.4,450.69c2.22.48,4.44.95,6.66,1.43.02.28.05.55.09.82-1.71.57-3.42,1.14-5.69,1.9-.38-1.47-.72-2.81-1.06-4.15Z"/>
      <path class="cls-11" d="M579.13,301.95c-.32-1.34-.63-2.68-.95-4.02.32,1.34.63,2.68.95,4.02Z"/>
      <path class="cls-2" d="M552.14,192.97c2.01,2.25,4.01,4.51,6.02,6.76.64.79,1.28,1.57,1.92,2.36.3.3.6.61.9.91,1.03,1.38,2.05,2.76,3.08,4.14.17.28.34.55.51.83-.24,0-.48,0-.72-.03-2.63,1.82-5.26,3.64-8.03,5.56.5,1.23,1.73,3.01,1.89,4.88.31,3.61,1.15,7.71-3.57,9.56-5.48-1.33-3.15-4.85-2.68-7.96-1.08-2.36-2.68-5.65-1.65-7.12,2.55-3.68-.04-4.41-2.49-5.83,5.04-3.65,6.69-8.3,4.83-14.06Z"/>
      <path class="cls-23" d="M564.05,207.15c-1.03-1.38-2.05-2.76-3.08-4.14,1.03,1.38,2.05,2.76,3.08,4.14Z"/>
      <path class="cls-23" d="M596.06,179.91c-.04.69-.08,1.38-.12,2.07-.81-.24-1.62-.48-3.82-1.13,2.26-.54,3.1-.74,3.94-.94Z"/>
      <path class="cls-23" d="M584.41,193.83c-.43.22-.99.68-1.16.56-.4-.27-.69-.79-.83-1.27-.04-.14.59-.48.91-.72.25.34.51.67,1.08,1.43Z"/>
      <path class="cls-23" d="M560.08,202.09c-.64-.79-1.28-1.57-1.92-2.36.02-.28.07-.55.13-.82.6,1.06,1.19,2.12,1.79,3.17Z"/>
      <path class="cls-23" d="M570.78,204.69c-.12.28-.18.7-.38.78-.2.08-.53-.19-.81-.31.12-.28.18-.71.37-.78.2-.08.54.19.81.31Z"/>
      <path class="cls-8" d="M98.01,460.98c2.01-.32,4.02-.64,6.01-.96.33,4.81,6.93,11.06,11,9.95,0,0,.5,0,.5,0h.5c-.24,1.56-.48,3.12-.58,3.79,1.95,1.6,4.67,2.72,5.27,4.54,1.32,4.03,3.47,5.72,6.76,5.02,2.21,2.58,3.74,5.07,5.9,6.72,3.34,2.55,7.07,6.22,10.71,6.29,3.9.08,4.93,1.09,5.49,4.97,4-4.56,5.19,1.76,7.3,1.27,4.89-1.13,8.15,1.94,11.94,3.47,4.62,1.86,8.92,4.51,13.47,6.57,2.35,1.06,4.9,1.82,7.44,2.32,8,1.58,16.08,2.79,24.05,4.51,3.69.8,7.26,2.31,10.75,3.8,2.61,1.12,5.78,2.17,7.29,4.26,1.63,2.26,2.35,4.12,5.62,2.98.99-.35,2.45.61,3.69,1,5.48,1.69,10.97,4.69,15.97-.52,2.77,2.35,5.1,4.32,8.45,7.15.31-5.85,3.16-5.16,6.4-4.25,1.82.51,3.95-.08,5.78.42,3.37.92,8.41,1.36,9.57,3.63,2.74,5.38,7.56,6.35,11.99,8.5,3.29-7.62,5.98.33,9.3.23,2.35-3.06,5.11-2.07,8.51-.89,3.13,1.08,6.39,2.96,10.34.48,5.4-3.39,11.29-5.45,18.17-3.45,3.49,1.02,8.57,1.52,7.29-5.12h17c1.93,1.96,1.87,1.63,7.28.58,3.11-.6,6.47.14,9.72.07.43-.01.82-1.31,1.26-2,2.03-3.22,5.69-3.33,7.98-.22.65.88,1.24,1.79,1.51,2.18,4.14-2.42,7.89-4.6,11.67-6.81.73,1.51,1.4,2.91,2.36,4.89,1.98-1.38,3.44-2.73,5.17-3.52,2.12-.97,4.61-2.37,6.66-2.01,5.48.95,9.15-.85,11.85-5.48.4-.68,1.5-1.06,2.35-1.35,6.51-2.22,13.56-2.66,19.5-6.88,2.71-1.93,6.44-2.43,10.77-3.95,5.78-6.57,15.18-9.51,24.16-13.19,1.47,4.13-.43,5.96-4.29,7.1-5.07,1.49-9.96,3.48-12.87,8.48-.45.77-1.83,1.02-2.81,1.43-1.67.7-3.84.9-4.98,2.09-5.37,5.6-12.37,7.37-19.45,9.34-2.84.79-5.72,2.59-7.82,4.69-4.61,4.6-12.89,2.3-16.35,9.12-.54,1.06-3.65,1.29-5.5,1.12-3.99-.38-7.86-1.26-11.23,2.02-.67.65-2.28.78-3.32.55-5.11-1.14-10.44,2.84-15.41-.72-.22-.16-.79-.18-.95-.01-3.9,3.93-8.64,4.03-13.7,3.31-1.43-.2-3.16,1.16-4.47.79-7.02-1.96-8.1-1.38-9.53,6.75-6.61-.6-13.32-1.21-20.03-1.8-.82-.07-1.99-.4-2.41,0-4.8,4.6-10.77,1.93-16.15,2.86-1.71.29-3.2,1.89-4.79,2.89-4.53-.33-9.12-1.26-13.59-.85-5.39.5-10.06-.03-14.83-2.92-2.35-1.42-5.89-.82-8.88-1.27-7.08-1.06-14.17-2.07-21.22-3.32-8.8-1.56-17.08-6.37-25.51-7.23-6.7-.68-9.35-5.16-14.08-7.34-5.03-2.32-9.81-5.24-14.96-7.22-2.16-.83-5,.16-7.53.17-1.45,0-3.46.24-4.27-.57-8.09-8.17-18.08-12.34-29.13-14.48-1.06-.21-2.13-.64-3.07-1.19-4.2-2.45-8.15-5.49-12.6-7.29-2.77-1.12-3.82-2.02-3.68-3.92-2.54-1.96-5.06-3.94-7.62-5.88-.78-.59-1.64-1.53-2.45-1.52-7.13.05-9.92-5.13-13.46-10.07-3.33-4.64-7.8-8.48-11.88-12.56-2.83-2.82-5.94-5.37-8.71-8.24-.65-.67-.43-2.18-.61-3.3ZM278.7,539.73c-.28-.12-.61-.39-.81-.31-.2.08-.26.51-.37.78.28.12.61.39.81.31.2-.08.26-.51.38-.78ZM351.81,544.37c-.12.28-.39.61-.32.81.08.2.51.26.78.38.12-.27.4-.61.32-.81-.08-.2-.51-.26-.78-.38Z"/>
      <path class="cls-8" d="M94.02,455.97c.67,1,1.33,2,2,2.99-1.07.24-2.14.47-4.34.96,1.07-1.8,1.7-2.87,2.34-3.95Z"/>
      <path class="cls-14" d="M552.14,192.97c1.86,5.76.21,10.41-4.83,14.06,2.46,1.42,5.04,2.15,2.49,5.83-1.02,1.47.57,4.76,1.65,7.12-.47,3.11-2.8,6.63,2.68,7.96,1.33,2.33,2.67,4.66,4,6.99-.7,1.28-1.2,2.74-2.15,3.79-1.12,1.24-2.89,3.24-3.94,2.99-4.98-1.15-8.41-.52-9.29,5.29-.07.48-1.36.74-2.03,1.18-2.16,1.46-4.5,2.75-6.39,4.51-2.23,2.07-3.82,4.86-6.13,6.8-2.18,1.83-2.9,3.69-3.33,6.51-.45,3-1.97,7.38-4.17,8.25-5.02,2-8.21,6.34-10.86,9.69-4.52,5.72-10,7.1-16.36,8.81.44,1.08.95,2.34,1.55,3.8-1.43.84-2.66,1.57-3.9,2.3-6.04-5.21-12.07-10.42-18.11-15.62,1.43-1.96,2.86-3.91,4.73-6.47-.05-.44-.21-1.84-.42-3.73,5,1.13,9.53,1.66,10.35-4.89,1.5.58,2.65,1.03,4.13,1.6.45-2.83.83-5.27,1.34-8.54,1.6,1.96,2.63,3.22,4.2,5.14.9-2.95,2.41-5.32,2.08-7.4-.75-4.78,1.85-5.44,5.13-4.6,3.18.81,3.89-.23,4.78-3.04,1.08-3.39,1.2-7.81,6.18-8.77.6-.11,1.39-2.28,1.14-3.25-1.02-4.01,1.12-5.77,4.28-7.26,1.18-.55,3.05-2.35,2.9-2.61-3.34-5.89,2.81-8.94,4.47-12.97,1.2-2.92,3.54-4.74.62-8.08,10.57-5.53,12.48-15.52,14.24-25.59,2.99,3.39,5.98,6.78,8.97,10.17Z"/>
      <path class="cls-10" d="M445.03,276.83c4.24-.16,5.26-3.08,4.93-6.45-.73-7.48,3.05-14.42,10.06-17.24,3.49-1.41,5.89-3.19,6.33-7.38.15-1.41,2.34-3.03,3.96-3.79,4.78-2.25,6.8-5.34,8.47-10.84,1.54-5.09,1.79-13.47,10.71-14.68,3.61-.49,9.45-12.11,9.04-14.8,4.05-4.59,7.74-8.77,11.44-12.95.33-.37.65-.82,1.07-1.04,4.85-2.56,9.56-5.17,5.18-13.13,3.84,1.28,6.07,2.02,8.24,2.74-.51-3.3-.02-5.42,2.68-11.32,1.35,1.31,2.7,2.62,4.05,3.93.34.33.68.67,1.02,1,.33.34.65.67.98,1.01.33.34.65.67.98,1.01,0,0,.02.02.02.02.33.33.66.65.98.98,0,0,.02.02.02.02.32.33.64.65.97.98,0,0,.04.04.04.04.32.33.64.66.96,1,.38.64.77,1.28,1.15,1.92-.8,1.81-1.6,3.61-2.61,5.89-3.29-.17-6.25.83-4.99,5.86.1.38-.51.89-.55,1.36-.41,4.56-6.24,5.48-6.88,8.81-1.08,5.61-5.53,7.68-8.6,11.24-1.28,1.48-2.04,3.38-3.1,5.06-2.37,3.73-4.78,7.44-7.17,11.15-.54.83-1.68,1.81-1.52,2.47,1.75,7.08-5.54,8.99-8.23,13.32-2.69,4.32-7.69,7.33-10.79,12.24-2.79,4.41-8.4,6.98-12.47,10.68-2.3,2.09-4.02,4.82-6.72,8.15v2.2c2.25,1.94,3.84,3.31,5.43,4.68-.82.07-1.64.13-2.46.2-8.66-2.56-17.44-4.11-26.51-3.09,0-.36.02-.72.02-1.08.67-.02,1.33-.03,2-.05.63-.03,1.26-.05,1.9-.08Z"/>
      <path class="cls-4" d="M470.08,280.93c-1.59-1.37-3.17-2.73-5.43-4.68v-2.2c2.7-3.32,4.42-6.06,6.72-8.15,4.08-3.7,9.68-6.26,12.47-10.68,3.1-4.91,8.1-7.92,10.79-12.24,2.69-4.33,9.98-6.24,8.23-13.32-.16-.66.98-1.64,1.52-2.47,2.39-3.72,4.8-7.42,7.17-11.15,1.06-1.67,1.83-3.58,3.1-5.06,3.07-3.55,7.52-5.63,8.6-11.24.64-3.33,6.47-4.25,6.88-8.81.04-.47.64-.98.55-1.36-1.26-5.03,1.7-6.02,4.99-5.86,1.01-2.28,1.81-4.08,2.61-5.89,1.63,1.65,3.25,3.31,4.88,4.96-1.76,10.06-3.67,20.05-14.24,25.58,2.92,3.34.59,5.16-.62,8.08-1.66,4.03-7.81,7.08-4.47,12.97.15.26-1.73,2.05-2.9,2.61-3.16,1.49-5.3,3.25-4.28,7.26.25.97-.54,3.14-1.14,3.25-4.98.96-5.1,5.38-6.18,8.77-.89,2.8-1.6,3.85-4.78,3.04-3.29-.84-5.88-.18-5.13,4.6.33,2.08-1.19,4.45-2.08,7.4-1.57-1.92-2.6-3.18-4.2-5.14-.51,3.27-.9,5.7-1.34,8.54-1.48-.58-2.62-1.02-4.13-1.6-.82,6.55-5.34,6.02-10.35,4.89.21,1.89.37,3.29.42,3.73-1.87,2.56-3.3,4.52-4.73,6.47-.97-.43-1.95-.87-2.92-1.3,0-.34-.02-.68-.02-1.02Z"/>
      <path class="cls-20" d="M537.14,175.92c-.32-.33-.64-.66-.96-1,.32.33.64.66.96,1Z"/>
      <path class="cls-20" d="M536.15,174.88c-.32-.33-.64-.65-.97-.98.32.33.64.65.97.98Z"/>
      <path class="cls-20" d="M535.16,173.89c-.33-.33-.66-.65-.98-.98.33.33.66.65.98.98Z"/>
      <path class="cls-20" d="M534.16,172.89c-.33-.34-.65-.67-.98-1.01.33.34.65.67.98,1.01Z"/>
      <path class="cls-20" d="M532.2,170.88c-.34-.33-.68-.67-1.02-1,.34.33.68.67,1.02,1Z"/>
      <path class="cls-12" d="M492.12,499.98c-8.98,3.67-18.38,6.62-24.16,13.19-4.33,1.52-8.06,2.03-10.77,3.95-5.94,4.22-12.99,4.66-19.5,6.88-.85.29-1.95.67-2.35,1.35-2.7,4.64-6.37,6.43-11.85,5.48-2.06-.36-4.54,1.04-6.66,2.01-1.73.79-3.19,2.14-5.17,3.52-.95-1.97-1.63-3.38-2.36-4.89-3.78,2.21-7.53,4.39-11.67,6.81-.27-.39-.87-1.31-1.51-2.18-2.29-3.1-5.95-3-7.98.22-.43.69-.82,1.99-1.26,2-3.24.08-6.6-.67-9.72-.07-5.41,1.04-5.35,1.37-7.28-.58h-17c1.29,6.64-3.79,6.14-7.29,5.12-6.88-2-12.77.06-18.17,3.45-3.96,2.49-7.21.61-10.34-.48-3.4-1.17-6.16-2.17-8.51.89-3.33.09-6.02-7.85-9.3-.23-4.43-2.15-9.25-3.13-11.99-8.5-1.16-2.27-6.2-2.71-9.57-3.63-1.83-.5-3.96.09-5.78-.42-3.25-.91-6.09-1.6-6.4,4.25-3.34-2.83-5.67-4.8-8.45-7.15-5,5.21-10.49,2.21-15.97.52-1.24-.38-2.7-1.34-3.69-1-3.27,1.15-3.99-.71-5.62-2.98-1.51-2.1-4.68-3.15-7.29-4.26-3.49-1.49-7.06-3-10.75-3.8-7.97-1.73-16.04-2.94-24.05-4.51-2.54-.5-5.08-1.26-7.44-2.32-4.55-2.06-8.85-4.7-13.47-6.57-3.79-1.53-7.05-4.61-11.94-3.47-2.11.49-3.3-5.83-7.3-1.27-.56-3.88-1.59-4.89-5.49-4.97-3.63-.07-7.37-3.74-10.71-6.29-2.16-1.65-3.69-4.14-5.9-6.72-3.29.7-5.44-.99-6.76-5.02-.59-1.82-3.31-2.94-5.27-4.54.1-.67.34-2.23.58-3.78,6.7,6.15,13.41,12.31,19.39,17.8,2.13-.3,4.93-.8,4.95-.68.82,3.69,2.65,4.95,6.71,5.43,4.29.51,8.75,2.63,12.33,5.18,3.71,2.64,7.37,3.55,11.63,3.26,7.07,2.94,14.07,6.04,21.22,8.75,4.57,1.74,9.37,2.87,14.06,4.32,3.57,1.11,7.1,2.37,10.69,3.41,5.9,1.71,11.8,3.44,17.77,4.89,6.95,1.69,13.95,3.2,20.97,4.56,8.6,1.67,17.21,3.35,25.87,4.58,4.62.65,9.38.43,14.08.47,11.85.11,23.71.45,35.55.12,12.18-.34,24.37-1.04,36.5-2.22,8.68-.85,17.23-2.83,25.87-4.15,3.87-.59,7.8-.78,11.69-1.16.63-.06,1.54.03,1.83-.34,3.35-4.2,8.43-3.16,12.77-4.39,2.99-.84,5.92-1.91,8.87-2.88,5.57-1.83,11.26-3.35,16.68-5.55,8.57-3.48,17.83-5.46,25.25-11.57,1.17-.96,3.41-.51,4.87-1.25,7.06-3.61,14.36-6.92,20.93-11.29,5.69-3.78,10.03-9.68,15.86-13.12,6.11-3.6,10.64-8.7,15.89-13.1,3.2-2.68,6.3-5.59,8.83-8.88,1.12-1.45.71-4.08,1-6.18.34-.17.69-.35,1.03-.52,2.04,1.42,4.08,2.84,6.13,4.26-1.34,2.31-3.04,4.49-3.96,6.95-1.89,5.03-6.71,6.95-10.17,10.3-3.56,3.13-7.18,6.19-10.64,9.42-1.9,1.77-3.38,3.99-5.3,5.73-2.97,2.7-5.79,6.24-9.34,7.48-5.91,2.07-10,5.81-13.73,10.37h0Z"/>
      <path class="cls-8" d="M492.12,499.98c3.74-4.56,7.83-8.3,13.73-10.37,3.56-1.25,6.37-4.78,9.34-7.48,1.92-1.74,3.4-3.96,5.3-5.73,3.46-3.23,7.08-6.29,10.64-9.42.18,1.45.37,2.89.51,4.05-1.59,1.22-3.41,2.03-4.37,3.43-5.83,8.52-13.89,14.6-21.7,21.1-4.21,3.5-7.82,6.36-13.46,4.42Z"/>
      <path class="cls-26" d="M548.18,449.97c.39.27.77.54,1.16.81-.39-.27-.77-.54-1.16-.81Z"/>
      <path class="cls-15" d="M320.53,125.46c.05-.25.1-.49.16-.74.02.05.04.1.06.16-.05.21-.12.4-.22.58Z"/>
      <path class="cls-19" d="M320.72,109.85c.04-.62.08-1.24.12-1.86-.04.62-.08,1.24-.12,1.86Z"/>
      <path class="cls-19" d="M320.84,105.86c-.01-.62-.03-1.25-.04-1.87.01.62.03,1.25.04,1.87Z"/>
      <path class="cls-15" d="M320.49,131.5s0-.15,0-.14c0,0,0,.14,0,.14Z"/>
      <path class="cls-19" d="M320.7,116.86c-.1-.2-.23-.39-.3-.6-.02-.06.16-.17.25-.26.31.27.32.56.05.87Z"/>
      <path class="cls-2" d="M491.14,298.88c1.23-.73,2.47-1.45,3.9-2.3-.6-1.46-1.11-2.72-1.55-3.8,6.35-1.71,11.84-3.09,16.36-8.81,2.65-3.35,5.84-7.7,10.86-9.69,2.2-.88,3.72-5.26,4.17-8.25.42-2.81,1.15-4.68,3.33-6.51,2.31-1.95,3.9-4.73,6.13-6.8,1.89-1.76,4.23-3.05,6.39-4.51.66-.45,1.95-.7,2.03-1.18.88-5.81,4.31-6.44,9.29-5.29,1.05.24,2.82-1.75,3.94-2.99.95-1.05,1.45-2.51,2.15-3.79.68,1.01,1.36,2.01,2.03,3.02,2.24,3.64,4.88,7.11,6.58,10.99,1.17,2.67,1.01,5.92,1.45,8.91-1,1.19-2.03,2.36-3.01,3.57-1.14,1.41-2.23,2.86-3.91,5.03-3.99-.71-7.63,1.25-9.34,6.44-.19.58-.73,1.48-1.15,1.5-5.57.24-5.34,5.81-7.99,8.3-5.55,5.23-9.42,13.57-19.04,13.4-1.05-.02-2.51,1.74-3.14,2.99-1.71,3.38-3.95,4.66-7.68,3.27-6.32-2.36-8.35-.89-8.13,5.74-2.53.94-5.1,1.9-7.67,2.85-2-4.03-4.01-8.06-6.01-12.08Z"/>
      <path class="cls-21" d="M560.17,237.96c-.68-1.01-1.36-2.01-2.03-3.02-1.33-2.33-2.67-4.66-4-6.99,4.71-1.85,3.87-5.95,3.57-9.56-.16-1.87-1.38-3.64-1.89-4.88,2.77-1.92,5.4-3.74,8.03-5.56,2.68,3.65,5.35,7.29,8.03,10.94-2.07,1.67-4.14,3.34-6.5,5.25.86,3.17,1.35,6.63-3.78,7.33,1.18,2.7,3.29,5.48-1.42,6.49Z"/>
      <path class="cls-12" d="M60.91,223.85c-.48-.36-.96-.72-1.44-1.08.11-.2.22-.41.34-.61.58.27,1.15.54,1.73.82-.21.29-.42.59-.63.88Z"/>
      <path class="cls-23" d="M586.89,218.04c.57-1.41,1.13-2.81,1.7-4.22.52-.52,1.03-1.04,1.55-1.56.29,1.05,1.1,2.32.76,3.09-.61,1.37-1.91,2.44-2.91,3.64-.36-.32-.73-.63-1.09-.95Z"/>
      <path class="cls-8" d="M580.87,206.92c.4-.2.8-.51,1.21-.54.15-.01.36.64.53.98-.44.14-.87.32-1.32.37-.09.01-.24-.46-.42-.81Z"/>
      <path class="cls-8" d="M580.71,215.67c-.12.27-.23.54-.35.81-.27-.12-.69-.18-.77-.37-.08-.2.19-.53.31-.8.27.12.54.24.81.35Z"/>
      <path class="cls-23" d="M50,234.94c.14.08.28.15.42.23-.14-.08-.28-.15-.42-.23,0,0,0,0,0,0Z"/>
      <path class="cls-5" d="M206.18,382.03c-7.1.52-14.29,2.03-21.27,1.34-12.48-1.23-23.57-6.14-31.99-16.07-9.4-11.1-14.54-23.69-13.84-38.34.65-13.47,5.57-25.13,14.62-35.29,13.13-14.72,29.61-17.64,48.01-14.76.48.08.99-.03,1.49-.05,23.09,5.33,38.84,25.87,39.25,49.65.34,19.87-6.68,35.77-22.86,47.25-3.96,2.81-8.91,4.22-13.41,6.27ZM170.22,330.98c11.17-.49,19.34-8.67,19.13-18.96-.24-11.29-9.29-19.7-21.98-19.02-10.25.55-16.52,7.95-16.69,18.72-.18,11.34,8.67,19.47,19.54,19.25Z"/>
      <path class="cls-22" d="M491.14,298.88c2,4.03,4.01,8.06,6.01,12.08,1.1,7.82,3.31,15.68,3.09,23.47-.79,28.08-28.34,54.15-58.33,48.7-2.6-.47-5.24-.65-7.87-.97-12.58-4.61-23.04-11.92-29.45-24.01-8.8-16.59-9.86-33.49-1.3-50.56.69-1.37,1.85-2.5,4.01-3.42,0,2.79-.15,5.59.03,8.38.74,11.47,7.37,16.31,15.4,17.82,7.17,1.34,15.19-.81,19.78-7.97,4.09-6.37,3.5-15.99-1.89-22.31-6.57-7.71-15.27-8.19-24.45-6.3-1.23.25-2.47.46-3.98.09,6.21-7.97,14.6-12.34,24.04-15.06,1.62-.26,3.25-.52,4.87-.79,9.08-1.02,17.85.54,26.51,3.09.83.27,1.66.55,2.48.82.97.43,1.95.87,2.92,1.3,6.04,5.21,12.07,10.42,18.11,15.62Z"/>
      <path class="cls-9" d="M320.62,433.04c-5.02,4.13-9.25,8.74-14.43,11.66-21.34,12.02-52.71,1.37-58.82-26.02-1.26-5.64-.88-11.01,4.06-14.98,5.56-4.47,13.06-1.8,14.7,5.1,1.29,5.41,1.88,10.95,6.49,15.18,11.34,10.4,28.94,6.68,34.12-7.74,1.74-4.85,2.28-10.13,3.18-14.3-4.77-3.05-8.94-4.93-12.12-7.88-9.93-9.23-7.47-23.7,5.02-28.78,11.2-4.56,22.89-4.13,34.19-.26,6.28,2.15,10.59,7.08,11.11,14,.58,7.74-2.98,13.77-9.45,17.95-2.49,1.61-5.29,2.74-8.67,4.45.77,4.5,1.07,9.33,2.49,13.81,2.92,9.2,10.4,14.66,19.76,14.67,9.16,0,15.92-4.22,19.53-12.77,1.14-2.69,1.63-5.67,2.36-8.53,1.16-4.52,4.57-6.72,8.71-6.98,4.02-.25,7.2,1.98,9.11,5.83,3.37,6.76.9,12.91-1.72,19.07-11,25.85-47.79,29.72-64.81,12.42-1.84-1.87-3.33-4.07-4.81-5.9Z"/>
      <path class="cls-23" d="M171.04,500.96c-4.27.29-7.93-.61-11.63-3.26-3.58-2.55-8.04-4.67-12.33-5.18-4.05-.48-5.89-1.74-6.71-5.43-.03-.12-2.83.38-4.95.68-5.99-5.49-12.69-11.65-19.39-17.8,0,0-.5,0-.5,0,0,0-.5,0-.5,0-2.23-3.24-4.5-6.45-6.64-9.74-.38-.58-.22-1.5-.32-2.26,2.4,1.58,4.98,2.94,7.16,4.77,3.92,3.3,7.69,6.79,11.34,10.39,1.73,1.71,3.04,3.85,5.17,4.88,1.54.84,3.14,1.59,4.62,2.53,5.93,3.77,11.76,7.7,17.74,11.39,3.76,2.32,7.72,4.33,11.61,6.43,1.74.94,3.56,1.75,5.34,2.61Z"/>
      <path class="cls-20" d="M441.11,278.04c-1.62.26-3.25.52-4.87.79-.05-.61-.11-1.22-.16-1.82,1.69-.01,3.37-.03,5.06-.04,0,.36-.02.72-.02,1.08Z"/>
      <path class="cls-20" d="M445.03,276.83c-.63.03-1.27.05-1.9.08.63-.03,1.27-.05,1.9-.08Z"/>
      <path class="cls-12" d="M278.7,539.73c-.12.28-.18.7-.38.78-.2.08-.53-.19-.81-.31.12-.27.18-.7.37-.78.2-.08.54.19.81.31Z"/>
      <path class="cls-12" d="M351.81,544.37c.28.12.7.18.78.38.08.2-.2.53-.32.81-.28-.12-.7-.18-.78-.38-.08-.2.2-.53.32-.81Z"/>
      <path class="cls-14" d="M470.11,281.95c-.83-.27-1.66-.55-2.48-.82.82-.07,1.64-.13,2.46-.2,0,.34.02.68.02,1.02Z"/>
      <path class="cls-3" d="M170.22,330.98c-10.87.22-19.72-7.91-19.54-19.25.17-10.77,6.44-18.17,16.69-18.72,12.69-.68,21.74,7.73,21.98,19.02.22,10.29-7.96,18.47-19.13,18.96Z"/>
    </g>
  </g>
</svg>