<?xml version="1.0" encoding="UTF-8"?>
<svg id="Layer_1" xmlns="http://www.w3.org/2000/svg" version="1.1" xmlns:xlink="http://www.w3.org/1999/xlink" viewBox="0 0 512 512">
  <!-- Generator: Adobe Illustrator 30.1.0, SVG Export Plug-In . SVG Version: 2.1.1 Build 136)  -->
  <defs>
    <style>
      .st0 {
        fill: #11294b;
      }

      .st1 {
        fill: url(#linear-gradient);
      }
    </style>
    <linearGradient id="linear-gradient" x1="143.9" y1="321.47" x2="472.83" y2="131.56" gradientUnits="userSpaceOnUse">
      <stop offset="0" stop-color="#c34327"/>
      <stop offset=".02" stop-color="#c44426"/>
      <stop offset=".39" stop-color="#dd5324"/>
      <stop offset=".72" stop-color="#eb5c22"/>
      <stop offset="1" stop-color="#f16022"/>
    </linearGradient>
  </defs>
  <path class="st1" d="M473.75,135.12c-.01-.17-.01-.33-.03-.5-.03-.27-.09-.53-.15-.79-.03-.15-.05-.3-.09-.45-.08-.29-.18-.58-.28-.86-.04-.11-.07-.22-.11-.33-.31-.77-.73-1.5-1.23-2.17-.08-.11-.18-.21-.27-.32-.18-.21-.35-.43-.54-.63-.12-.13-.26-.24-.39-.36-.18-.16-.35-.33-.55-.48-.15-.12-.32-.22-.48-.33-.17-.12-.33-.25-.51-.35-.02-.01-.04-.02-.07-.03-.02-.01-.04-.03-.07-.04L260.82,7.29c-1.49-.86-3.16-1.29-4.82-1.29v20.77l188.33,108.73-84.25,45.13-99.53-53.31c-1.42-.76-2.99-1.14-4.55-1.14v20.57l83.66,44.82-88.22,47.25c-3.13,1.68-5.09,4.94-5.09,8.5v249.04c0,3.44,1.84,6.63,4.82,8.35,1.49.86,3.16,1.29,4.82,1.29s3.33-.43,4.82-1.29l208.16-120.18c2.98-1.72,4.82-4.9,4.82-8.35v-240.36c0-.23-.03-.46-.04-.7ZM265.64,253.09l84.8-45.42v102.65l-84.8,45.42v-102.65ZM454.52,370.61l-188.88,109.05v-102.05l98.99-53.03c3.13-1.68,5.09-4.94,5.09-8.5v-118.75l84.8-45.42v218.7Z"/>
  <path class="st0" d="M246.36,247.32c0-3.55,1.96-6.82,5.09-8.5l4.55-2.44h0l-83.66-44.82,83.66-44.82v-20.57c-1.56,0-3.13.38-4.55,1.14l-99.53,53.31-84.25-45.13L256,26.77V6c-1.66,0-3.33.43-4.82,1.29L43.02,127.47s-.04.03-.06.04c-.02.01-.05.02-.07.04-.2.12-.37.26-.56.39-.14.1-.29.19-.43.3-.2.16-.39.34-.57.51-.12.11-.25.22-.37.33-.19.2-.36.41-.53.62-.09.11-.2.22-.28.33-.23.3-.43.62-.62.94-.04.07-.08.14-.12.21-.18.33-.35.66-.49,1.01-.06.14-.1.3-.15.44-.09.25-.18.49-.25.75-.04.17-.07.35-.1.52-.05.24-.1.47-.13.72-.02.19-.02.38-.04.57-.01.21-.04.42-.04.64v240.36c0,3.44,1.84,6.63,4.82,8.35l104.08,60.09c1.49.86,3.16,1.29,4.82,1.29s3.33-.43,4.82-1.29c2.98-1.72,4.82-4.9,4.82-8.35v-228.6l84.8,45.42v-5.77ZM142.28,419.57l-84.8-48.96v-218.7l84.8,45.42v222.23Z"/>
</svg>