<?xml version="1.0" encoding="UTF-8" standalone="no"?>
<!DOCTYPE svg PUBLIC "-//W3C//DTD SVG 1.1//EN"
 "http://www.w3.org/Graphics/SVG/1.1/DTD/svg11.dtd">
<!-- Generated by graphviz version 2.40.1 (0)
 -->
<!-- Title: %3 Pages: 1 -->
<svg width="903pt" height="754pt"
 viewBox="0.00 0.00 903.20 754.20" xmlns="http://www.w3.org/2000/svg" xmlns:xlink="http://www.w3.org/1999/xlink">
<g id="graph0" class="graph" transform="scale(1 1) rotate(0) translate(21.6 732.6)">
<title>%3</title>
<polygon fill="#0a0a0a" stroke="transparent" points="-21.6,21.6 -21.6,-732.6 881.6,-732.6 881.6,21.6 -21.6,21.6"/>
<!-- obj_000&#45;&gt;obj_001 -->
<g id="edge2" class="edge">
<title>obj_000&#45;&gt;obj_001</title>
<path fill="none" stroke="#ffd166" stroke-width="3.2" d="M306.7839,-292.5783C340.3856,-302.5056 383.7231,-315.3094 418.695,-325.6415"/>
<polygon fill="#ffd166" stroke="#ffd166" stroke-width="3.2" points="418.0129,-328.3596 426.4784,-327.9411 419.5996,-322.9891 418.0129,-328.3596"/>
<polygon fill="#0a0a0a" stroke="transparent" points="350.2759,-311.8025 350.2759,-326.8025 365.2759,-326.8025 365.2759,-311.8025 350.2759,-311.8025"/>
<text text-anchor="start" x="352.2759" y="-316.8025" font-family="Helvetica,sans-Serif" font-size="10.00" fill="#ffffff">e2</text>
</g>
<!-- obj_000&#45;&gt;obj_005 -->
<g id="edge1" class="edge">
<title>obj_000&#45;&gt;obj_005</title>
<path fill="none" stroke="#6b7280" stroke-width="2" d="M210.6066,-313.9665C179.4542,-341.4848 137.0119,-378.9759 104.4631,-407.7277"/>
<polygon fill="#6b7280" stroke="#6b7280" stroke-width="2" points="102.2335,-405.9611 98.0915,-413.356 105.941,-410.1582 102.2335,-405.9611"/>
<polygon fill="#0a0a0a" stroke="transparent" points="137.639,-365.3468 137.639,-380.3468 152.639,-380.3468 152.639,-365.3468 137.639,-365.3468"/>
<text text-anchor="start" x="139.639" y="-370.3468" font-family="Helvetica,sans-Serif" font-size="10.00" fill="#e5e7eb">e1</text>
</g>
<!-- obj_001&#45;&gt;obj_002 -->
<g id="edge3" class="edge">
<title>obj_001&#45;&gt;obj_002</title>
<path fill="none" stroke="#6b7280" stroke-width="2" d="M488.7645,-288.3251C496.0451,-239.898 506.6012,-169.6841 514.2075,-119.0905"/>
<polygon fill="#6b7280" stroke="#6b7280" stroke-width="2" points="516.9815,-119.4727 515.402,-111.1453 511.4437,-118.6401 516.9815,-119.4727"/>
<polygon fill="#0a0a0a" stroke="transparent" points="485.6024,-201.1081 485.6024,-216.1081 500.6024,-216.1081 500.6024,-201.1081 485.6024,-201.1081"/>
<text text-anchor="start" x="487.6024" y="-206.1081" font-family="Helvetica,sans-Serif" font-size="10.00" fill="#e5e7eb">e3</text>
</g>
<!-- obj_001&#45;&gt;obj_003 -->
<g id="edge5" class="edge">
<title>obj_001&#45;&gt;obj_003</title>
<path fill="none" stroke="#6b7280" stroke-width="2" d="M536.5824,-348.1527C585.0301,-351.8417 654.9878,-357.1687 705.6626,-361.0273"/>
<polygon fill="#6b7280" stroke="#6b7280" stroke-width="2" points="705.7499,-363.842 713.9395,-361.6576 706.1752,-358.2582 705.7499,-363.842"/>
<polygon fill="#0a0a0a" stroke="transparent" points="608.6912,-356.3998 608.6912,-371.3998 623.6912,-371.3998 623.6912,-356.3998 608.6912,-356.3998"/>
<text text-anchor="start" x="610.6912" y="-361.3998" font-family="Helvetica,sans-Serif" font-size="10.00" fill="#e5e7eb">e5</text>
</g>
<!-- obj_001&#45;&gt;obj_004 -->
<g id="edge4" class="edge">
<title>obj_001&#45;&gt;obj_004</title>
<path fill="none" stroke="#6b7280" stroke-width="2" d="M482.5114,-399.9734C483.7796,-433.8768 485.4007,-477.2138 486.7209,-512.5043"/>
<polygon fill="#6b7280" stroke="#6b7280" stroke-width="2" points="483.935,-512.938 487.0322,-520.8277 489.5311,-512.7286 483.935,-512.938"/>
<polygon fill="#0a0a0a" stroke="transparent" points="468.2676,-461.7873 468.2676,-476.7873 483.2676,-476.7873 483.2676,-461.7873 468.2676,-461.7873"/>
<text text-anchor="start" x="470.2676" y="-466.7873" font-family="Helvetica,sans-Serif" font-size="10.00" fill="#e5e7eb">e4</text>
</g>
<!-- obj_000 -->
<g id="node1" class="node">
<title>obj_000</title>
<ellipse fill="#13294b" stroke="#4fa3ff" stroke-width="2.2" cx="252.8561" cy="-276.6457" rx="56" ry="56"/>
<text text-anchor="middle" x="252.8561" y="-273.1457" font-family="Helvetica,sans-Serif" font-size="15.00" fill="#ffffff">person</text>
</g>
<!-- obj_001 -->
<g id="node2" class="node">
<title>obj_001</title>
<ellipse fill="#13294b" stroke="#4fa3ff" stroke-width="2.2" cx="480.413" cy="-343.8756" rx="56" ry="56"/>
<text text-anchor="middle" x="480.413" y="-340.3756" font-family="Helvetica,sans-Serif" font-size="15.00" fill="#ffffff">floor</text>
</g>
<!-- obj_002 -->
<g id="node3" class="node">
<title>obj_002</title>
<ellipse fill="#13294b" stroke="#4fa3ff" stroke-width="2.2" cx="523.728" cy="-55.7653" rx="56" ry="56"/>
<text text-anchor="middle" x="523.728" y="-52.2653" font-family="Helvetica,sans-Serif" font-size="15.00" fill="#ffffff">sofa</text>
</g>
<!-- obj_003 -->
<g id="node4" class="node">
<title>obj_003</title>
<ellipse fill="#13294b" stroke="#4fa3ff" stroke-width="2.2" cx="769.9526" cy="-365.9227" rx="56" ry="56"/>
<text text-anchor="middle" x="769.9526" y="-362.4227" font-family="Helvetica,sans-Serif" font-size="15.00" fill="#ffffff">shelf</text>
</g>
<!-- obj_004 -->
<g id="node5" class="node">
<title>obj_004</title>
<ellipse fill="#13294b" stroke="#4fa3ff" stroke-width="2.2" cx="489.1275" cy="-576.842" rx="56" ry="56"/>
<text text-anchor="middle" x="489.1275" y="-573.342" font-family="Helvetica,sans-Serif" font-size="15.00" fill="#ffffff">dumbbell</text>
</g>
<!-- obj_005 -->
<g id="node6" class="node">
<title>obj_005</title>
<ellipse fill="#13294b" stroke="#4fa3ff" stroke-width="2.2" cx="55.9119" cy="-450.6151" rx="56" ry="56"/>
<text text-anchor="middle" x="55.9119" y="-447.1151" font-family="Helvetica,sans-Serif" font-size="15.00" fill="#ffffff">watch</text>
</g>
<!-- main_edge_legend -->
<g id="node7" class="node">
<title>main_edge_legend</title>
<polygon fill="#13294b" stroke="transparent" stroke-width="2.2" points="859.5874,-710.7726 637.5874,-710.7726 637.5874,-521.7726 859.5874,-521.7726 859.5874,-710.7726"/>
<polygon fill="#0a0a0a" stroke="transparent" points="637.5874,-521.7726 637.5874,-710.7726 859.5874,-710.7726 859.5874,-521.7726 637.5874,-521.7726"/>
<polygon fill="#13294b" stroke="transparent" points="637.5874,-683.2726 637.5874,-710.2726 859.5874,-710.2726 859.5874,-683.2726 637.5874,-683.2726"/>
<polygon fill="none" stroke="#4fa3ff" points="637.5874,-683.2726 637.5874,-710.2726 859.5874,-710.2726 859.5874,-683.2726 637.5874,-683.2726"/>
<text text-anchor="start" x="701.5874" y="-694.2726" font-family="Helvetica,sans-Serif" font-weight="bold" font-size="15.00" fill="#ffffff">Edge Legend</text>
<polygon fill="none" stroke="#4fa3ff" points="637.5874,-656.2726 637.5874,-683.2726 664.5874,-683.2726 664.5874,-656.2726 637.5874,-656.2726"/>
<text text-anchor="start" x="643.0874" y="-667.2726" font-family="Helvetica,sans-Serif" font-weight="bold" font-size="15.00" fill="#ffffff">ID</text>
<polygon fill="none" stroke="#4fa3ff" points="664.5874,-656.2726 664.5874,-683.2726 731.5874,-683.2726 731.5874,-656.2726 664.5874,-656.2726"/>
<text text-anchor="start" x="675.0874" y="-667.2726" font-family="Helvetica,sans-Serif" font-weight="bold" font-size="15.00" fill="#ffffff">Status</text>
<polygon fill="none" stroke="#4fa3ff" points="731.5874,-656.2726 731.5874,-683.2726 859.5874,-683.2726 859.5874,-656.2726 731.5874,-656.2726"/>
<text text-anchor="start" x="765.5874" y="-667.2726" font-family="Helvetica,sans-Serif" font-weight="bold" font-size="15.00" fill="#ffffff">Relation</text>
<polygon fill="none" stroke="#4fa3ff" points="637.5874,-629.2726 637.5874,-656.2726 664.5874,-656.2726 664.5874,-629.2726 637.5874,-629.2726"/>
<text text-anchor="start" x="642.5874" y="-639.2726" font-family="Helvetica,sans-Serif" font-size="15.00" fill="#ffffff">e1</text>
<polygon fill="none" stroke="#4fa3ff" points="664.5874,-629.2726 664.5874,-656.2726 731.5874,-656.2726 731.5874,-629.2726 664.5874,-629.2726"/>
<text text-anchor="start" x="669.5874" y="-639.2726" font-family="Helvetica,sans-Serif" font-size="15.00" fill="#6b7280">Baseline</text>
<polygon fill="none" stroke="#4fa3ff" points="731.5874,-629.2726 731.5874,-656.2726 859.5874,-656.2726 859.5874,-629.2726 731.5874,-629.2726"/>
<text text-anchor="start" x="769.5874" y="-639.2726" font-family="Helvetica,sans-Serif" font-size="15.00" fill="#ffffff">wearing</text>
<polygon fill="none" stroke="#4fa3ff" points="637.5874,-602.2726 637.5874,-629.2726 664.5874,-629.2726 664.5874,-602.2726 637.5874,-602.2726"/>
<text text-anchor="start" x="642.5874" y="-612.2726" font-family="Helvetica,sans-Serif" font-size="15.00" fill="#ffffff">e2</text>
<polygon fill="none" stroke="#4fa3ff" points="664.5874,-602.2726 664.5874,-629.2726 731.5874,-629.2726 731.5874,-602.2726 664.5874,-602.2726"/>
<text text-anchor="start" x="669.5874" y="-612.2726" font-family="Helvetica,sans-Serif" font-size="15.00" fill="#ffd166">Updated</text>
<polygon fill="none" stroke="#4fa3ff" points="731.5874,-602.2726 731.5874,-629.2726 859.5874,-629.2726 859.5874,-602.2726 731.5874,-602.2726"/>
<text text-anchor="start" x="736.5874" y="-612.2726" font-family="Helvetica,sans-Serif" font-size="15.00" fill="#ffffff">pressing down on</text>
<polygon fill="none" stroke="#4fa3ff" points="637.5874,-575.2726 637.5874,-602.2726 664.5874,-602.2726 664.5874,-575.2726 637.5874,-575.2726"/>
<text text-anchor="start" x="642.5874" y="-585.2726" font-family="Helvetica,sans-Serif" font-size="15.00" fill="#ffffff">e3</text>
<polygon fill="none" stroke="#4fa3ff" points="664.5874,-575.2726 664.5874,-602.2726 731.5874,-602.2726 731.5874,-575.2726 664.5874,-575.2726"/>
<text text-anchor="start" x="669.5874" y="-585.2726" font-family="Helvetica,sans-Serif" font-size="15.00" fill="#6b7280">Baseline</text>
<polygon fill="none" stroke="#4fa3ff" points="731.5874,-575.2726 731.5874,-602.2726 859.5874,-602.2726 859.5874,-575.2726 731.5874,-575.2726"/>
<text text-anchor="start" x="770.5874" y="-585.2726" font-family="Helvetica,sans-Serif" font-size="15.00" fill="#ffffff">bearing</text>
<polygon fill="none" stroke="#4fa3ff" points="637.5874,-548.2726 637.5874,-575.2726 664.5874,-575.2726 664.5874,-548.2726 637.5874,-548.2726"/>
<text text-anchor="start" x="642.5874" y="-558.2726" font-family="Helvetica,sans-Serif" font-size="15.00" fill="#ffffff">e4</text>
<polygon fill="none" stroke="#4fa3ff" points="664.5874,-548.2726 664.5874,-575.2726 731.5874,-575.2726 731.5874,-548.2726 664.5874,-548.2726"/>
<text text-anchor="start" x="669.5874" y="-558.2726" font-family="Helvetica,sans-Serif" font-size="15.00" fill="#6b7280">Baseline</text>
<polygon fill="none" stroke="#4fa3ff" points="731.5874,-548.2726 731.5874,-575.2726 859.5874,-575.2726 859.5874,-548.2726 731.5874,-548.2726"/>
<text text-anchor="start" x="770.5874" y="-558.2726" font-family="Helvetica,sans-Serif" font-size="15.00" fill="#ffffff">bearing</text>
<polygon fill="none" stroke="#4fa3ff" points="637.5874,-521.2726 637.5874,-548.2726 664.5874,-548.2726 664.5874,-521.2726 637.5874,-521.2726"/>
<text text-anchor="start" x="642.5874" y="-531.2726" font-family="Helvetica,sans-Serif" font-size="15.00" fill="#ffffff">e5</text>
<polygon fill="none" stroke="#4fa3ff" points="664.5874,-521.2726 664.5874,-548.2726 731.5874,-548.2726 731.5874,-521.2726 664.5874,-521.2726"/>
<text text-anchor="start" x="669.5874" y="-531.2726" font-family="Helvetica,sans-Serif" font-size="15.00" fill="#6b7280">Baseline</text>
<polygon fill="none" stroke="#4fa3ff" points="731.5874,-521.2726 731.5874,-548.2726 859.5874,-548.2726 859.5874,-521.2726 731.5874,-521.2726"/>
<text text-anchor="start" x="770.5874" y="-531.2726" font-family="Helvetica,sans-Serif" font-size="15.00" fill="#ffffff">bearing</text>
</g>
</g>
</svg>
