<?xml version="1.0" encoding="UTF-8" standalone="no"?>
<!DOCTYPE svg PUBLIC "-//W3C//DTD SVG 1.1//EN"
 "http://www.w3.org/Graphics/SVG/1.1/DTD/svg11.dtd">
<!-- Generated by graphviz version 2.40.1 (0)
 -->
<!-- Title: %3 Pages: 1 -->
<svg width="1276pt" height="1195pt"
 viewBox="0.00 0.00 1276.20 1195.20" xmlns="http://www.w3.org/2000/svg" xmlns:xlink="http://www.w3.org/1999/xlink">
<g id="graph0" class="graph" transform="scale(1 1) rotate(0) translate(21.6 1173.6)">
<title>%3</title>
<polygon fill="#0a0a0a" stroke="transparent" points="-21.6,21.6 -21.6,-1173.6 1254.6,-1173.6 1254.6,21.6 -21.6,21.6"/>
<!-- obj_000&#45;&gt;obj_002 -->
<g id="edge7" class="edge">
<title>obj_000&#45;&gt;obj_002</title>
<path fill="none" stroke="#ff7f32" stroke-width="3.2" d="M417.3876,-408.3339C456.203,-394.3556 508.9529,-375.3593 549.4356,-360.7806"/>
<polygon fill="#ff7f32" stroke="#ff7f32" stroke-width="3.2" points="550.5249,-363.3644 557.103,-358.0194 548.6274,-358.0956 550.5249,-363.3644"/>
<polygon fill="#0a0a0a" stroke="transparent" points="470.8901,-365.6245 470.8901,-380.6245 485.8901,-380.6245 485.8901,-365.6245 470.8901,-365.6245"/>
<text text-anchor="start" x="472.8901" y="-370.6245" font-family="Helvetica,sans-Serif" font-size="10.00" fill="#ffffff">e7</text>
</g>
<!-- obj_000&#45;&gt;obj_007 -->
<g id="edge1" class="edge">
<title>obj_000&#45;&gt;obj_007</title>
<path fill="none" stroke="#6b7280" stroke-width="2" d="M315.9105,-455.9986C275.9305,-479.5654 219.202,-513.005 177.4112,-537.6393"/>
<polygon fill="#6b7280" stroke="#6b7280" stroke-width="2" points="175.7843,-535.3481 170.3144,-541.8227 178.6281,-540.1723 175.7843,-535.3481"/>
<polygon fill="#0a0a0a" stroke="transparent" points="226.8349,-500.2795 226.8349,-515.2795 241.8349,-515.2795 241.8349,-500.2795 226.8349,-500.2795"/>
<text text-anchor="start" x="228.8349" y="-505.2795" font-family="Helvetica,sans-Serif" font-size="10.00" fill="#e5e7eb">e1</text>
</g>
<!-- obj_000&#45;&gt;obj_009 -->
<g id="edge4" class="edge">
<title>obj_000&#45;&gt;obj_009</title>
<path fill="none" stroke="#6b7280" stroke-width="2" d="M355.9831,-482.7841C351.0477,-515.2546 344.7932,-556.403 339.6571,-590.194"/>
<polygon fill="#6b7280" stroke="#6b7280" stroke-width="2" points="336.8787,-589.8409 338.4446,-598.1709 342.4151,-590.6825 336.8787,-589.8409"/>
<polygon fill="#0a0a0a" stroke="transparent" points="330.7335,-541.8482 330.7335,-556.8482 345.7335,-556.8482 345.7335,-541.8482 330.7335,-541.8482"/>
<text text-anchor="start" x="332.7335" y="-546.8482" font-family="Helvetica,sans-Serif" font-size="10.00" fill="#e5e7eb">e4</text>
</g>
<!-- obj_000&#45;&gt;obj_010 -->
<g id="edge5" class="edge">
<title>obj_000&#45;&gt;obj_010</title>
<path fill="none" stroke="#6b7280" stroke-width="2" d="M340.205,-376.7291C313.9461,-321.7155 272.0878,-234.0206 244.5444,-176.3161"/>
<polygon fill="#6b7280" stroke="#6b7280" stroke-width="2" points="247.0643,-175.0951 241.0912,-169.0816 242.0105,-177.5074 247.0643,-175.0951"/>
<polygon fill="#0a0a0a" stroke="transparent" points="274.1399,-274.3881 274.1399,-289.3881 289.1399,-289.3881 289.1399,-274.3881 274.1399,-274.3881"/>
<text text-anchor="start" x="276.1399" y="-279.3881" font-family="Helvetica,sans-Serif" font-size="10.00" fill="#e5e7eb">e5</text>
</g>
<!-- obj_000&#45;&gt;obj_013 -->
<g id="edge3" class="edge">
<title>obj_000&#45;&gt;obj_013</title>
<path fill="none" stroke="#6b7280" stroke-width="2" d="M386.6819,-375.7418C406.8279,-329.0228 436.4686,-260.2855 457.5134,-211.4823"/>
<polygon fill="#6b7280" stroke="#6b7280" stroke-width="2" points="460.0873,-212.5846 460.684,-204.1297 454.945,-210.3671 460.0873,-212.5846"/>
<polygon fill="#0a0a0a" stroke="transparent" points="407.1745,-291.4553 407.1745,-306.4553 422.1745,-306.4553 422.1745,-291.4553 407.1745,-291.4553"/>
<text text-anchor="start" x="409.1745" y="-296.4553" font-family="Helvetica,sans-Serif" font-size="10.00" fill="#e5e7eb">e3</text>
</g>
<!-- obj_000&#45;&gt;obj_015 -->
<g id="edge2" class="edge">
<title>obj_000&#45;&gt;obj_015</title>
<path fill="none" stroke="#6b7280" stroke-width="2" d="M311.0775,-410.0845C257.1995,-392.5719 174.0503,-365.5448 117.5025,-347.1644"/>
<polygon fill="#6b7280" stroke="#6b7280" stroke-width="2" points="118.1795,-344.4403 109.7057,-344.6301 116.4483,-349.766 118.1795,-344.4403"/>
<polygon fill="#0a0a0a" stroke="transparent" points="193.9254,-378.8683 193.9254,-393.8683 208.9254,-393.8683 208.9254,-378.8683 193.9254,-378.8683"/>
<text text-anchor="start" x="195.9254" y="-383.8683" font-family="Helvetica,sans-Serif" font-size="10.00" fill="#e5e7eb">e2</text>
</g>
<!-- obj_000&#45;&gt;obj_017 -->
<g id="edge6" class="edge">
<title>obj_000&#45;&gt;obj_017</title>
<path fill="none" stroke="#6b7280" stroke-width="2" d="M405.0271,-466.4679C423.6973,-484.4136 445.9369,-505.7902 465.2625,-524.3659"/>
<polygon fill="#6b7280" stroke="#6b7280" stroke-width="2" points="463.4514,-526.5087 471.1594,-530.0339 467.3321,-522.4713 463.4514,-526.5087"/>
<polygon fill="#0a0a0a" stroke="transparent" points="421.7837,-499.9339 421.7837,-514.9339 436.7837,-514.9339 436.7837,-499.9339 421.7837,-499.9339"/>
<text text-anchor="start" x="423.7837" y="-504.9339" font-family="Helvetica,sans-Serif" font-size="10.00" fill="#e5e7eb">e6</text>
</g>
<!-- obj_001&#45;&gt;obj_002 -->
<g id="edge13" class="edge">
<title>obj_001&#45;&gt;obj_002</title>
<path fill="none" stroke="#ff7f32" stroke-width="3.2" d="M882.1322,-264.985C824.2744,-280.7149 732.7991,-305.5846 672.1028,-322.0863"/>
<polygon fill="#ff7f32" stroke="#ff7f32" stroke-width="3.2" points="671.1045,-319.456 664.1193,-324.2568 672.5737,-324.8598 671.1045,-319.456"/>
<polygon fill="#0a0a0a" stroke="transparent" points="751.3224,-277.0674 751.3224,-292.0674 771.3224,-292.0674 771.3224,-277.0674 751.3224,-277.0674"/>
<text text-anchor="start" x="753.3224" y="-282.0674" font-family="Helvetica,sans-Serif" font-size="10.00" fill="#ffffff">e13</text>
</g>
<!-- obj_001&#45;&gt;obj_008 -->
<g id="edge8" class="edge">
<title>obj_001&#45;&gt;obj_008</title>
<path fill="none" stroke="#6b7280" stroke-width="2" d="M974.3729,-291.747C1008.3434,-328.8834 1058.1151,-383.2937 1093.647,-422.137"/>
<polygon fill="#6b7280" stroke="#6b7280" stroke-width="2" points="1091.7571,-424.2194 1099.2227,-428.2324 1095.8891,-420.4396 1091.7571,-424.2194"/>
<polygon fill="#0a0a0a" stroke="transparent" points="1020.3923,-361.593 1020.3923,-376.593 1035.3923,-376.593 1035.3923,-361.593 1020.3923,-361.593"/>
<text text-anchor="start" x="1022.3923" y="-366.593" font-family="Helvetica,sans-Serif" font-size="10.00" fill="#e5e7eb">e8</text>
</g>
<!-- obj_001&#45;&gt;obj_011 -->
<g id="edge11" class="edge">
<title>obj_001&#45;&gt;obj_011</title>
<path fill="none" stroke="#6b7280" stroke-width="2" d="M960.6045,-199.484C973.0454,-173.4035 988.2659,-141.4959 1001.1869,-114.4088"/>
<polygon fill="#6b7280" stroke="#6b7280" stroke-width="2" points="1003.8489,-115.3316 1004.7661,-106.9055 998.7945,-112.9206 1003.8489,-115.3316"/>
<polygon fill="#0a0a0a" stroke="transparent" points="960.6785,-154.709 960.6785,-169.709 980.6785,-169.709 980.6785,-154.709 960.6785,-154.709"/>
<text text-anchor="start" x="962.6785" y="-159.709" font-family="Helvetica,sans-Serif" font-size="10.00" fill="#e5e7eb">e11</text>
</g>
<!-- obj_001&#45;&gt;obj_012 -->
<g id="edge12" class="edge">
<title>obj_001&#45;&gt;obj_012</title>
<path fill="none" stroke="#6b7280" stroke-width="2" d="M927.4417,-305.6895C918.7785,-359.3392 905.661,-440.5726 896.5781,-496.8214"/>
<polygon fill="#6b7280" stroke="#6b7280" stroke-width="2" points="893.7794,-496.5888 895.2682,-504.9328 899.3078,-497.4815 893.7794,-496.5888"/>
<polygon fill="#0a0a0a" stroke="transparent" points="889.3295,-406.9691 889.3295,-421.9691 909.3295,-421.9691 909.3295,-406.9691 889.3295,-406.9691"/>
<text text-anchor="start" x="891.3295" y="-411.9691" font-family="Helvetica,sans-Serif" font-size="10.00" fill="#e5e7eb">e12</text>
</g>
<!-- obj_001&#45;&gt;obj_014 -->
<g id="edge10" class="edge">
<title>obj_001&#45;&gt;obj_014</title>
<path fill="none" stroke="#6b7280" stroke-width="2" d="M901.6747,-205.73C882.3718,-180.9904 858.2809,-150.1143 838.2652,-124.4611"/>
<polygon fill="#6b7280" stroke="#6b7280" stroke-width="2" points="840.3985,-122.6434 833.2697,-118.0585 835.9833,-126.0882 840.3985,-122.6434"/>
<polygon fill="#0a0a0a" stroke="transparent" points="845.4162,-163.3225 845.4162,-178.3225 865.4162,-178.3225 865.4162,-163.3225 845.4162,-163.3225"/>
<text text-anchor="start" x="847.4162" y="-168.3225" font-family="Helvetica,sans-Serif" font-size="10.00" fill="#e5e7eb">e10</text>
</g>
<!-- obj_001&#45;&gt;obj_016 -->
<g id="edge9" class="edge">
<title>obj_001&#45;&gt;obj_016</title>
<path fill="none" stroke="#6b7280" stroke-width="2" d="M992.4662,-248.0526C1028.3307,-246.6586 1074.9675,-244.8459 1112.3623,-243.3925"/>
<polygon fill="#6b7280" stroke="#6b7280" stroke-width="2" points="1112.7944,-246.1779 1120.6796,-243.0692 1112.5768,-240.5821 1112.7944,-246.1779"/>
<polygon fill="#0a0a0a" stroke="transparent" points="1040.2216,-247.0551 1040.2216,-262.0551 1055.2216,-262.0551 1055.2216,-247.0551 1040.2216,-247.0551"/>
<text text-anchor="start" x="1042.2216" y="-252.0551" font-family="Helvetica,sans-Serif" font-size="10.00" fill="#e5e7eb">e9</text>
</g>
<!-- obj_002&#45;&gt;obj_000 -->
<g id="edge14" class="edge">
<title>obj_002&#45;&gt;obj_000</title>
<path fill="none" stroke="#6b7280" stroke-width="2" d="M557.008,-358.0536C518.1926,-372.0319 465.4427,-391.0282 424.96,-405.6069"/>
<polygon fill="#6b7280" stroke="#6b7280" stroke-width="2" points="423.8707,-403.0231 417.2926,-408.3681 425.7682,-408.2918 423.8707,-403.0231"/>
<polygon fill="#0a0a0a" stroke="transparent" points="465.0055,-384.763 465.0055,-399.763 485.0055,-399.763 485.0055,-384.763 465.0055,-384.763"/>
<text text-anchor="start" x="467.0055" y="-389.763" font-family="Helvetica,sans-Serif" font-size="10.00" fill="#e5e7eb">e14</text>
</g>
<!-- obj_002&#45;&gt;obj_001 -->
<g id="edge15" class="edge">
<title>obj_002&#45;&gt;obj_001</title>
<path fill="none" stroke="#6b7280" stroke-width="2" d="M664.2615,-324.2181C722.1193,-308.4881 813.5946,-283.6185 874.2909,-267.1168"/>
<polygon fill="#6b7280" stroke="#6b7280" stroke-width="2" points="875.2892,-269.7471 882.2744,-264.9463 873.82,-264.3433 875.2892,-269.7471"/>
<polygon fill="#0a0a0a" stroke="transparent" points="751.0713,-296.1357 751.0713,-311.1357 771.0713,-311.1357 771.0713,-296.1357 751.0713,-296.1357"/>
<text text-anchor="start" x="753.0713" y="-301.1357" font-family="Helvetica,sans-Serif" font-size="10.00" fill="#e5e7eb">e15</text>
</g>
<!-- obj_000 -->
<g id="node1" class="node">
<title>obj_000</title>
<ellipse fill="#13294b" stroke="#4fa3ff" stroke-width="2.2" cx="364.3989" cy="-427.4162" rx="56" ry="56"/>
<text text-anchor="middle" x="364.3989" y="-423.9162" font-family="Helvetica,sans-Serif" font-size="15.00" fill="#ffffff">person</text>
</g>
<!-- obj_001 -->
<g id="node2" class="node">
<title>obj_001</title>
<ellipse fill="#13294b" stroke="#4fa3ff" stroke-width="2.2" cx="936.397" cy="-250.2319" rx="56" ry="56"/>
<text text-anchor="middle" x="936.397" y="-246.7319" font-family="Helvetica,sans-Serif" font-size="15.00" fill="#ffffff">person</text>
</g>
<!-- obj_002 -->
<g id="node3" class="node">
<title>obj_002</title>
<ellipse fill="#13294b" stroke="#4fa3ff" stroke-width="2.2" cx="609.9967" cy="-338.9712" rx="56" ry="56"/>
<text text-anchor="middle" x="609.9967" y="-343.9712" font-family="Helvetica,sans-Serif" font-size="15.00" fill="#ffffff">running</text>
<text text-anchor="middle" x="609.9967" y="-326.9712" font-family="Helvetica,sans-Serif" font-size="15.00" fill="#ffffff">track</text>
</g>
<!-- obj_007 -->
<g id="node4" class="node">
<title>obj_007</title>
<ellipse fill="#13294b" stroke="#4fa3ff" stroke-width="2.2" cx="121.91" cy="-570.3555" rx="56" ry="56"/>
<text text-anchor="middle" x="121.91" y="-566.8555" font-family="Helvetica,sans-Serif" font-size="15.00" fill="#ffffff">hat</text>
</g>
<!-- obj_008 -->
<g id="node5" class="node">
<title>obj_008</title>
<ellipse fill="#13294b" stroke="#4fa3ff" stroke-width="2.2" cx="1137.0434" cy="-469.5777" rx="56" ry="56"/>
<text text-anchor="middle" x="1137.0434" y="-466.0777" font-family="Helvetica,sans-Serif" font-size="15.00" fill="#ffffff">headband</text>
</g>
<!-- obj_009 -->
<g id="node6" class="node">
<title>obj_009</title>
<ellipse fill="#13294b" stroke="#4fa3ff" stroke-width="2.2" cx="329.9965" cy="-653.7516" rx="56" ry="56"/>
<text text-anchor="middle" x="329.9965" y="-650.2516" font-family="Helvetica,sans-Serif" font-size="15.00" fill="#ffffff">shoes</text>
</g>
<!-- obj_010 -->
<g id="node7" class="node">
<title>obj_010</title>
<ellipse fill="#13294b" stroke="#4fa3ff" stroke-width="2.2" cx="216.8841" cy="-118.3667" rx="56" ry="56"/>
<text text-anchor="middle" x="216.8841" y="-114.8667" font-family="Helvetica,sans-Serif" font-size="15.00" fill="#ffffff">shoes</text>
</g>
<!-- obj_011 -->
<g id="node8" class="node">
<title>obj_011</title>
<ellipse fill="#13294b" stroke="#4fa3ff" stroke-width="2.2" cx="1028.993" cy="-56.1171" rx="56" ry="56"/>
<text text-anchor="middle" x="1028.993" y="-52.6171" font-family="Helvetica,sans-Serif" font-size="15.00" fill="#ffffff">shoes</text>
</g>
<!-- obj_012 -->
<g id="node9" class="node">
<title>obj_012</title>
<ellipse fill="#13294b" stroke="#4fa3ff" stroke-width="2.2" cx="886.3063" cy="-560.4324" rx="56" ry="56"/>
<text text-anchor="middle" x="886.3063" y="-556.9324" font-family="Helvetica,sans-Serif" font-size="15.00" fill="#ffffff">shoes</text>
</g>
<!-- obj_013 -->
<g id="node10" class="node">
<title>obj_013</title>
<ellipse fill="#13294b" stroke="#4fa3ff" stroke-width="2.2" cx="482.867" cy="-152.6869" rx="56" ry="56"/>
<text text-anchor="middle" x="482.867" y="-149.1869" font-family="Helvetica,sans-Serif" font-size="15.00" fill="#ffffff">shorts</text>
</g>
<!-- obj_014 -->
<g id="node11" class="node">
<title>obj_014</title>
<ellipse fill="#13294b" stroke="#4fa3ff" stroke-width="2.2" cx="798.7971" cy="-73.8766" rx="56" ry="56"/>
<text text-anchor="middle" x="798.7971" y="-70.3766" font-family="Helvetica,sans-Serif" font-size="15.00" fill="#ffffff">shorts</text>
</g>
<!-- obj_015 -->
<g id="node12" class="node">
<title>obj_015</title>
<ellipse fill="#13294b" stroke="#4fa3ff" stroke-width="2.2" cx="56.2632" cy="-327.259" rx="56" ry="56"/>
<text text-anchor="middle" x="56.2632" y="-323.759" font-family="Helvetica,sans-Serif" font-size="15.00" fill="#ffffff">shirt</text>
</g>
<!-- obj_016 -->
<g id="node13" class="node">
<title>obj_016</title>
<ellipse fill="#13294b" stroke="#4fa3ff" stroke-width="2.2" cx="1176.8376" cy="-240.8865" rx="56" ry="56"/>
<text text-anchor="middle" x="1176.8376" y="-237.3865" font-family="Helvetica,sans-Serif" font-size="15.00" fill="#ffffff">shirt</text>
</g>
<!-- obj_017 -->
<g id="node14" class="node">
<title>obj_017</title>
<ellipse fill="#13294b" stroke="#4fa3ff" stroke-width="2.2" cx="511.655" cy="-568.9581" rx="56" ry="56"/>
<text text-anchor="middle" x="511.655" y="-565.4581" font-family="Helvetica,sans-Serif" font-size="15.00" fill="#ffffff">water bottle</text>
</g>
<!-- isolated_grid_node -->
<g id="node15" class="node">
<title>isolated_grid_node</title>
<polygon fill="#13294b" stroke="transparent" stroke-width="2.2" points="852.5874,-785.2726 566.5874,-785.2726 566.5874,-693.2726 852.5874,-693.2726 852.5874,-785.2726"/>
<polygon fill="#0a0a0a" stroke="transparent" points="566.5874,-693.2726 566.5874,-785.2726 852.5874,-785.2726 852.5874,-693.2726 566.5874,-693.2726"/>
<text text-anchor="start" x="594.5874" y="-759.0726" font-family="Helvetica,sans-Serif" font-weight="bold" font-size="14.00" fill="#ffffff">Unconnected / Background Objects</text>
<polygon fill="#13294b" stroke="transparent" points="574.5874,-701.2726 574.5874,-738.2726 639.5874,-738.2726 639.5874,-701.2726 574.5874,-701.2726"/>
<polygon fill="none" stroke="#4fa3ff" stroke-width="2" points="575.5874,-702.2726 575.5874,-737.2726 638.5874,-737.2726 638.5874,-702.2726 575.5874,-702.2726"/>
<text text-anchor="start" x="593.5874" y="-716.2726" font-family="Helvetica,sans-Serif" font-size="15.00" fill="#ffffff">tree</text>
<polygon fill="#13294b" stroke="transparent" stroke-width="2" points="647.5874,-701.2726 647.5874,-738.2726 713.5874,-738.2726 713.5874,-701.2726 647.5874,-701.2726"/>
<polygon fill="none" stroke="#4fa3ff" stroke-width="2" points="648.5874,-702.2726 648.5874,-737.2726 712.5874,-737.2726 712.5874,-702.2726 648.5874,-702.2726"/>
<text text-anchor="start" x="662.0874" y="-716.2726" font-family="Helvetica,sans-Serif" font-size="15.00" fill="#ffffff">fence</text>
<polygon fill="#13294b" stroke="transparent" stroke-width="2" points="721.5874,-701.2726 721.5874,-738.2726 774.5874,-738.2726 774.5874,-701.2726 721.5874,-701.2726"/>
<polygon fill="none" stroke="#4fa3ff" stroke-width="2" points="722.5874,-702.2726 722.5874,-737.2726 773.5874,-737.2726 773.5874,-702.2726 722.5874,-702.2726"/>
<text text-anchor="start" x="733.5874" y="-716.2726" font-family="Helvetica,sans-Serif" font-size="15.00" fill="#ffffff">rock</text>
<polygon fill="#13294b" stroke="transparent" stroke-width="2" points="782.5874,-701.2726 782.5874,-738.2726 844.5874,-738.2726 844.5874,-701.2726 782.5874,-701.2726"/>
<polygon fill="none" stroke="#4fa3ff" stroke-width="2" points="783.5874,-702.2726 783.5874,-737.2726 843.5874,-737.2726 843.5874,-702.2726 783.5874,-702.2726"/>
<text text-anchor="start" x="795.0874" y="-716.2726" font-family="Helvetica,sans-Serif" font-size="15.00" fill="#ffffff">grass</text>
</g>
<!-- main_edge_legend -->
<g id="node16" class="node">
<title>main_edge_legend</title>
<polygon fill="#13294b" stroke="transparent" stroke-width="2.2" points="1162.5874,-1151.7726 944.5874,-1151.7726 944.5874,-692.7726 1162.5874,-692.7726 1162.5874,-1151.7726"/>
<polygon fill="#0a0a0a" stroke="transparent" points="944.5874,-692.7726 944.5874,-1151.7726 1162.5874,-1151.7726 1162.5874,-692.7726 944.5874,-692.7726"/>
<polygon fill="#13294b" stroke="transparent" points="944.5874,-1124.2726 944.5874,-1151.2726 1162.5874,-1151.2726 1162.5874,-1124.2726 944.5874,-1124.2726"/>
<polygon fill="none" stroke="#4fa3ff" points="944.5874,-1124.2726 944.5874,-1151.2726 1162.5874,-1151.2726 1162.5874,-1124.2726 944.5874,-1124.2726"/>
<text text-anchor="start" x="1006.5874" y="-1135.2726" font-family="Helvetica,sans-Serif" font-weight="bold" font-size="15.00" fill="#ffffff">Edge Legend</text>
<polygon fill="none" stroke="#4fa3ff" points="944.5874,-1097.2726 944.5874,-1124.2726 979.5874,-1124.2726 979.5874,-1097.2726 944.5874,-1097.2726"/>
<text text-anchor="start" x="954.0874" y="-1108.2726" font-family="Helvetica,sans-Serif" font-weight="bold" font-size="15.00" fill="#ffffff">ID</text>
<polygon fill="none" stroke="#4fa3ff" points="979.5874,-1097.2726 979.5874,-1124.2726 1046.5874,-1124.2726 1046.5874,-1097.2726 979.5874,-1097.2726"/>
<text text-anchor="start" x="990.0874" y="-1108.2726" font-family="Helvetica,sans-Serif" font-weight="bold" font-size="15.00" fill="#ffffff">Status</text>
<polygon fill="none" stroke="#4fa3ff" points="1046.5874,-1097.2726 1046.5874,-1124.2726 1162.5874,-1124.2726 1162.5874,-1097.2726 1046.5874,-1097.2726"/>
<text text-anchor="start" x="1074.5874" y="-1108.2726" font-family="Helvetica,sans-Serif" font-weight="bold" font-size="15.00" fill="#ffffff">Relation</text>
<polygon fill="none" stroke="#4fa3ff" points="944.5874,-1070.2726 944.5874,-1097.2726 979.5874,-1097.2726 979.5874,-1070.2726 944.5874,-1070.2726"/>
<text text-anchor="start" x="953.5874" y="-1080.2726" font-family="Helvetica,sans-Serif" font-size="15.00" fill="#ffffff">e1</text>
<polygon fill="none" stroke="#4fa3ff" points="979.5874,-1070.2726 979.5874,-1097.2726 1046.5874,-1097.2726 1046.5874,-1070.2726 979.5874,-1070.2726"/>
<text text-anchor="start" x="984.5874" y="-1080.2726" font-family="Helvetica,sans-Serif" font-size="15.00" fill="#6b7280">Baseline</text>
<polygon fill="none" stroke="#4fa3ff" points="1046.5874,-1070.2726 1046.5874,-1097.2726 1162.5874,-1097.2726 1162.5874,-1070.2726 1046.5874,-1070.2726"/>
<text text-anchor="start" x="1078.5874" y="-1080.2726" font-family="Helvetica,sans-Serif" font-size="15.00" fill="#ffffff">wearing</text>
<polygon fill="none" stroke="#4fa3ff" points="944.5874,-1043.2726 944.5874,-1070.2726 979.5874,-1070.2726 979.5874,-1043.2726 944.5874,-1043.2726"/>
<text text-anchor="start" x="953.5874" y="-1053.2726" font-family="Helvetica,sans-Serif" font-size="15.00" fill="#ffffff">e2</text>
<polygon fill="none" stroke="#4fa3ff" points="979.5874,-1043.2726 979.5874,-1070.2726 1046.5874,-1070.2726 1046.5874,-1043.2726 979.5874,-1043.2726"/>
<text text-anchor="start" x="984.5874" y="-1053.2726" font-family="Helvetica,sans-Serif" font-size="15.00" fill="#6b7280">Baseline</text>
<polygon fill="none" stroke="#4fa3ff" points="1046.5874,-1043.2726 1046.5874,-1070.2726 1162.5874,-1070.2726 1162.5874,-1043.2726 1046.5874,-1043.2726"/>
<text text-anchor="start" x="1078.5874" y="-1053.2726" font-family="Helvetica,sans-Serif" font-size="15.00" fill="#ffffff">wearing</text>
<polygon fill="none" stroke="#4fa3ff" points="944.5874,-1016.2726 944.5874,-1043.2726 979.5874,-1043.2726 979.5874,-1016.2726 944.5874,-1016.2726"/>
<text text-anchor="start" x="953.5874" y="-1026.2726" font-family="Helvetica,sans-Serif" font-size="15.00" fill="#ffffff">e3</text>
<polygon fill="none" stroke="#4fa3ff" points="979.5874,-1016.2726 979.5874,-1043.2726 1046.5874,-1043.2726 1046.5874,-1016.2726 979.5874,-1016.2726"/>
<text text-anchor="start" x="984.5874" y="-1026.2726" font-family="Helvetica,sans-Serif" font-size="15.00" fill="#6b7280">Baseline</text>
<polygon fill="none" stroke="#4fa3ff" points="1046.5874,-1016.2726 1046.5874,-1043.2726 1162.5874,-1043.2726 1162.5874,-1016.2726 1046.5874,-1016.2726"/>
<text text-anchor="start" x="1078.5874" y="-1026.2726" font-family="Helvetica,sans-Serif" font-size="15.00" fill="#ffffff">wearing</text>
<polygon fill="none" stroke="#4fa3ff" points="944.5874,-989.2726 944.5874,-1016.2726 979.5874,-1016.2726 979.5874,-989.2726 944.5874,-989.2726"/>
<text text-anchor="start" x="953.5874" y="-999.2726" font-family="Helvetica,sans-Serif" font-size="15.00" fill="#ffffff">e4</text>
<polygon fill="none" stroke="#4fa3ff" points="979.5874,-989.2726 979.5874,-1016.2726 1046.5874,-1016.2726 1046.5874,-989.2726 979.5874,-989.2726"/>
<text text-anchor="start" x="984.5874" y="-999.2726" font-family="Helvetica,sans-Serif" font-size="15.00" fill="#6b7280">Baseline</text>
<polygon fill="none" stroke="#4fa3ff" points="1046.5874,-989.2726 1046.5874,-1016.2726 1162.5874,-1016.2726 1162.5874,-989.2726 1046.5874,-989.2726"/>
<text text-anchor="start" x="1078.5874" y="-999.2726" font-family="Helvetica,sans-Serif" font-size="15.00" fill="#ffffff">wearing</text>
<polygon fill="none" stroke="#4fa3ff" points="944.5874,-962.2726 944.5874,-989.2726 979.5874,-989.2726 979.5874,-962.2726 944.5874,-962.2726"/>
<text text-anchor="start" x="953.5874" y="-972.2726" font-family="Helvetica,sans-Serif" font-size="15.00" fill="#ffffff">e5</text>
<polygon fill="none" stroke="#4fa3ff" points="979.5874,-962.2726 979.5874,-989.2726 1046.5874,-989.2726 1046.5874,-962.2726 979.5874,-962.2726"/>
<text text-anchor="start" x="984.5874" y="-972.2726" font-family="Helvetica,sans-Serif" font-size="15.00" fill="#6b7280">Baseline</text>
<polygon fill="none" stroke="#4fa3ff" points="1046.5874,-962.2726 1046.5874,-989.2726 1162.5874,-989.2726 1162.5874,-962.2726 1046.5874,-962.2726"/>
<text text-anchor="start" x="1078.5874" y="-972.2726" font-family="Helvetica,sans-Serif" font-size="15.00" fill="#ffffff">wearing</text>
<polygon fill="none" stroke="#4fa3ff" points="944.5874,-935.2726 944.5874,-962.2726 979.5874,-962.2726 979.5874,-935.2726 944.5874,-935.2726"/>
<text text-anchor="start" x="953.5874" y="-945.2726" font-family="Helvetica,sans-Serif" font-size="15.00" fill="#ffffff">e6</text>
<polygon fill="none" stroke="#4fa3ff" points="979.5874,-935.2726 979.5874,-962.2726 1046.5874,-962.2726 1046.5874,-935.2726 979.5874,-935.2726"/>
<text text-anchor="start" x="984.5874" y="-945.2726" font-family="Helvetica,sans-Serif" font-size="15.00" fill="#6b7280">Baseline</text>
<polygon fill="none" stroke="#4fa3ff" points="1046.5874,-935.2726 1046.5874,-962.2726 1162.5874,-962.2726 1162.5874,-935.2726 1046.5874,-935.2726"/>
<text text-anchor="start" x="1080.5874" y="-945.2726" font-family="Helvetica,sans-Serif" font-size="15.00" fill="#ffffff">holding</text>
<polygon fill="none" stroke="#4fa3ff" points="944.5874,-908.2726 944.5874,-935.2726 979.5874,-935.2726 979.5874,-908.2726 944.5874,-908.2726"/>
<text text-anchor="start" x="953.5874" y="-918.2726" font-family="Helvetica,sans-Serif" font-size="15.00" fill="#ffffff">e7</text>
<polygon fill="none" stroke="#4fa3ff" points="979.5874,-908.2726 979.5874,-935.2726 1046.5874,-935.2726 1046.5874,-908.2726 979.5874,-908.2726"/>
<text text-anchor="start" x="991.5874" y="-918.2726" font-family="Helvetica,sans-Serif" font-size="15.00" fill="#ff7f32">Added</text>
<polygon fill="none" stroke="#4fa3ff" points="1046.5874,-908.2726 1046.5874,-935.2726 1162.5874,-935.2726 1162.5874,-908.2726 1046.5874,-908.2726"/>
<text text-anchor="start" x="1051.5874" y="-918.2726" font-family="Helvetica,sans-Serif" font-size="15.00" fill="#ffffff">running forward</text>
<polygon fill="none" stroke="#4fa3ff" points="944.5874,-881.2726 944.5874,-908.2726 979.5874,-908.2726 979.5874,-881.2726 944.5874,-881.2726"/>
<text text-anchor="start" x="953.5874" y="-891.2726" font-family="Helvetica,sans-Serif" font-size="15.00" fill="#ffffff">e8</text>
<polygon fill="none" stroke="#4fa3ff" points="979.5874,-881.2726 979.5874,-908.2726 1046.5874,-908.2726 1046.5874,-881.2726 979.5874,-881.2726"/>
<text text-anchor="start" x="984.5874" y="-891.2726" font-family="Helvetica,sans-Serif" font-size="15.00" fill="#6b7280">Baseline</text>
<polygon fill="none" stroke="#4fa3ff" points="1046.5874,-881.2726 1046.5874,-908.2726 1162.5874,-908.2726 1162.5874,-881.2726 1046.5874,-881.2726"/>
<text text-anchor="start" x="1078.5874" y="-891.2726" font-family="Helvetica,sans-Serif" font-size="15.00" fill="#ffffff">wearing</text>
<polygon fill="none" stroke="#4fa3ff" points="944.5874,-854.2726 944.5874,-881.2726 979.5874,-881.2726 979.5874,-854.2726 944.5874,-854.2726"/>
<text text-anchor="start" x="953.5874" y="-864.2726" font-family="Helvetica,sans-Serif" font-size="15.00" fill="#ffffff">e9</text>
<polygon fill="none" stroke="#4fa3ff" points="979.5874,-854.2726 979.5874,-881.2726 1046.5874,-881.2726 1046.5874,-854.2726 979.5874,-854.2726"/>
<text text-anchor="start" x="984.5874" y="-864.2726" font-family="Helvetica,sans-Serif" font-size="15.00" fill="#6b7280">Baseline</text>
<polygon fill="none" stroke="#4fa3ff" points="1046.5874,-854.2726 1046.5874,-881.2726 1162.5874,-881.2726 1162.5874,-854.2726 1046.5874,-854.2726"/>
<text text-anchor="start" x="1078.5874" y="-864.2726" font-family="Helvetica,sans-Serif" font-size="15.00" fill="#ffffff">wearing</text>
<polygon fill="none" stroke="#4fa3ff" points="944.5874,-827.2726 944.5874,-854.2726 979.5874,-854.2726 979.5874,-827.2726 944.5874,-827.2726"/>
<text text-anchor="start" x="949.5874" y="-837.2726" font-family="Helvetica,sans-Serif" font-size="15.00" fill="#ffffff">e10</text>
<polygon fill="none" stroke="#4fa3ff" points="979.5874,-827.2726 979.5874,-854.2726 1046.5874,-854.2726 1046.5874,-827.2726 979.5874,-827.2726"/>
<text text-anchor="start" x="984.5874" y="-837.2726" font-family="Helvetica,sans-Serif" font-size="15.00" fill="#6b7280">Baseline</text>
<polygon fill="none" stroke="#4fa3ff" points="1046.5874,-827.2726 1046.5874,-854.2726 1162.5874,-854.2726 1162.5874,-827.2726 1046.5874,-827.2726"/>
<text text-anchor="start" x="1078.5874" y="-837.2726" font-family="Helvetica,sans-Serif" font-size="15.00" fill="#ffffff">wearing</text>
<polygon fill="none" stroke="#4fa3ff" points="944.5874,-800.2726 944.5874,-827.2726 979.5874,-827.2726 979.5874,-800.2726 944.5874,-800.2726"/>
<text text-anchor="start" x="949.5874" y="-810.2726" font-family="Helvetica,sans-Serif" font-size="15.00" fill="#ffffff">e11</text>
<polygon fill="none" stroke="#4fa3ff" points="979.5874,-800.2726 979.5874,-827.2726 1046.5874,-827.2726 1046.5874,-800.2726 979.5874,-800.2726"/>
<text text-anchor="start" x="984.5874" y="-810.2726" font-family="Helvetica,sans-Serif" font-size="15.00" fill="#6b7280">Baseline</text>
<polygon fill="none" stroke="#4fa3ff" points="1046.5874,-800.2726 1046.5874,-827.2726 1162.5874,-827.2726 1162.5874,-800.2726 1046.5874,-800.2726"/>
<text text-anchor="start" x="1078.5874" y="-810.2726" font-family="Helvetica,sans-Serif" font-size="15.00" fill="#ffffff">wearing</text>
<polygon fill="none" stroke="#4fa3ff" points="944.5874,-773.2726 944.5874,-800.2726 979.5874,-800.2726 979.5874,-773.2726 944.5874,-773.2726"/>
<text text-anchor="start" x="949.5874" y="-783.2726" font-family="Helvetica,sans-Serif" font-size="15.00" fill="#ffffff">e12</text>
<polygon fill="none" stroke="#4fa3ff" points="979.5874,-773.2726 979.5874,-800.2726 1046.5874,-800.2726 1046.5874,-773.2726 979.5874,-773.2726"/>
<text text-anchor="start" x="984.5874" y="-783.2726" font-family="Helvetica,sans-Serif" font-size="15.00" fill="#6b7280">Baseline</text>
<polygon fill="none" stroke="#4fa3ff" points="1046.5874,-773.2726 1046.5874,-800.2726 1162.5874,-800.2726 1162.5874,-773.2726 1046.5874,-773.2726"/>
<text text-anchor="start" x="1078.5874" y="-783.2726" font-family="Helvetica,sans-Serif" font-size="15.00" fill="#ffffff">wearing</text>
<polygon fill="none" stroke="#4fa3ff" points="944.5874,-746.2726 944.5874,-773.2726 979.5874,-773.2726 979.5874,-746.2726 944.5874,-746.2726"/>
<text text-anchor="start" x="949.5874" y="-756.2726" font-family="Helvetica,sans-Serif" font-size="15.00" fill="#ffffff">e13</text>
<polygon fill="none" stroke="#4fa3ff" points="979.5874,-746.2726 979.5874,-773.2726 1046.5874,-773.2726 1046.5874,-746.2726 979.5874,-746.2726"/>
<text text-anchor="start" x="991.5874" y="-756.2726" font-family="Helvetica,sans-Serif" font-size="15.00" fill="#ff7f32">Added</text>
<polygon fill="none" stroke="#4fa3ff" points="1046.5874,-746.2726 1046.5874,-773.2726 1162.5874,-773.2726 1162.5874,-746.2726 1046.5874,-746.2726"/>
<text text-anchor="start" x="1053.0874" y="-756.2726" font-family="Helvetica,sans-Serif" font-size="15.00" fill="#ffffff">jogging forward</text>
<polygon fill="none" stroke="#4fa3ff" points="944.5874,-719.2726 944.5874,-746.2726 979.5874,-746.2726 979.5874,-719.2726 944.5874,-719.2726"/>
<text text-anchor="start" x="949.5874" y="-729.2726" font-family="Helvetica,sans-Serif" font-size="15.00" fill="#ffffff">e14</text>
<polygon fill="none" stroke="#4fa3ff" points="979.5874,-719.2726 979.5874,-746.2726 1046.5874,-746.2726 1046.5874,-719.2726 979.5874,-719.2726"/>
<text text-anchor="start" x="984.5874" y="-729.2726" font-family="Helvetica,sans-Serif" font-size="15.00" fill="#6b7280">Baseline</text>
<polygon fill="none" stroke="#4fa3ff" points="1046.5874,-719.2726 1046.5874,-746.2726 1162.5874,-746.2726 1162.5874,-719.2726 1046.5874,-719.2726"/>
<text text-anchor="start" x="1079.5874" y="-729.2726" font-family="Helvetica,sans-Serif" font-size="15.00" fill="#ffffff">bearing</text>
<polygon fill="none" stroke="#4fa3ff" points="944.5874,-692.2726 944.5874,-719.2726 979.5874,-719.2726 979.5874,-692.2726 944.5874,-692.2726"/>
<text text-anchor="start" x="949.5874" y="-702.2726" font-family="Helvetica,sans-Serif" font-size="15.00" fill="#ffffff">e15</text>
<polygon fill="none" stroke="#4fa3ff" points="979.5874,-692.2726 979.5874,-719.2726 1046.5874,-719.2726 1046.5874,-692.2726 979.5874,-692.2726"/>
<text text-anchor="start" x="984.5874" y="-702.2726" font-family="Helvetica,sans-Serif" font-size="15.00" fill="#6b7280">Baseline</text>
<polygon fill="none" stroke="#4fa3ff" points="1046.5874,-692.2726 1046.5874,-719.2726 1162.5874,-719.2726 1162.5874,-692.2726 1046.5874,-692.2726"/>
<text text-anchor="start" x="1079.5874" y="-702.2726" font-family="Helvetica,sans-Serif" font-size="15.00" fill="#ffffff">bearing</text>
</g>
</g>
</svg>
