<?xml version="1.0" encoding="UTF-8" standalone="no"?>
<!DOCTYPE svg PUBLIC "-//W3C//DTD SVG 1.1//EN"
 "http://www.w3.org/Graphics/SVG/1.1/DTD/svg11.dtd">
<!-- Generated by graphviz version 2.40.1 (0)
 -->
<!-- Title: %3 Pages: 1 -->
<svg width="997pt" height="964pt"
 viewBox="0.00 0.00 997.20 964.20" xmlns="http://www.w3.org/2000/svg" xmlns:xlink="http://www.w3.org/1999/xlink">
<g id="graph0" class="graph" transform="scale(1 1) rotate(0) translate(21.6 942.6)">
<title>%3</title>
<polygon fill="#0a0a0a" stroke="transparent" points="-21.6,21.6 -21.6,-942.6 975.6,-942.6 975.6,21.6 -21.6,21.6"/>
<!-- obj_000&#45;&gt;obj_001 -->
<g id="edge3" class="edge">
<title>obj_000&#45;&gt;obj_001</title>
<path fill="none" stroke="#ff7f32" stroke-width="3.2" d="M411.4071,-300.1425C419.8388,-297.4198 428.6119,-294.587 437.2013,-291.8134"/>
<polygon fill="#ff7f32" stroke="#ff7f32" stroke-width="3.2" points="438.2702,-294.4107 445.0228,-289.2878 436.5494,-289.0816 438.2702,-294.4107"/>
<polygon fill="#0a0a0a" stroke="transparent" points="426.0497,-277.1878 426.0497,-292.1878 441.0497,-292.1878 441.0497,-277.1878 426.0497,-277.1878"/>
<text text-anchor="start" x="428.0497" y="-282.1878" font-family="Helvetica,sans-Serif" font-size="10.00" fill="#ffffff">e3</text>
</g>
<!-- obj_000&#45;&gt;obj_004 -->
<g id="edge1" class="edge">
<title>obj_000&#45;&gt;obj_004</title>
<path fill="none" stroke="#6b7280" stroke-width="2" d="M403.6914,-349.7159C448.0043,-380.9541 515.1005,-428.2534 561.5601,-461.005"/>
<polygon fill="#6b7280" stroke="#6b7280" stroke-width="2" points="560.1079,-463.4071 568.2599,-465.728 563.3345,-458.8301 560.1079,-463.4071"/>
<polygon fill="#0a0a0a" stroke="transparent" points="469.6061,-409.3139 469.6061,-424.3139 484.6061,-424.3139 484.6061,-409.3139 469.6061,-409.3139"/>
<text text-anchor="start" x="471.6061" y="-414.3139" font-family="Helvetica,sans-Serif" font-size="10.00" fill="#e5e7eb">e1</text>
</g>
<!-- obj_000&#45;&gt;obj_005 -->
<g id="edge2" class="edge">
<title>obj_000&#45;&gt;obj_005</title>
<path fill="none" stroke="#6b7280" stroke-width="2" d="M301.8076,-321.5627C250.3104,-325.3626 174.0393,-330.9905 120.1358,-334.9679"/>
<polygon fill="#6b7280" stroke="#6b7280" stroke-width="2" points="119.7899,-332.1858 112.0176,-335.567 120.202,-337.7706 119.7899,-332.1858"/>
<polygon fill="#0a0a0a" stroke="transparent" points="190.4605,-330.0613 190.4605,-345.0613 205.4605,-345.0613 205.4605,-330.0613 190.4605,-330.0613"/>
<text text-anchor="start" x="192.4605" y="-335.0613" font-family="Helvetica,sans-Serif" font-size="10.00" fill="#e5e7eb">e2</text>
</g>
<!-- obj_001&#45;&gt;obj_000 -->
<g id="edge6" class="edge">
<title>obj_001&#45;&gt;obj_000</title>
<path fill="none" stroke="#ff7f32" stroke-width="3.2" d="M444.874,-289.3359C436.4423,-292.0585 427.6692,-294.8914 419.0798,-297.6649"/>
<polygon fill="#ff7f32" stroke="#ff7f32" stroke-width="3.2" points="418.0108,-295.0677 411.2583,-300.1905 419.7317,-300.3967 418.0108,-295.0677"/>
<polygon fill="#0a0a0a" stroke="transparent" points="430.4814,-296.2906 430.4814,-311.2906 445.4814,-311.2906 445.4814,-296.2906 430.4814,-296.2906"/>
<text text-anchor="start" x="432.4814" y="-301.2906" font-family="Helvetica,sans-Serif" font-size="10.00" fill="#ffffff">e6</text>
</g>
<!-- obj_001&#45;&gt;obj_003 -->
<g id="edge4" class="edge">
<title>obj_001&#45;&gt;obj_003</title>
<path fill="none" stroke="#6b7280" stroke-width="2" d="M481.8278,-325.9261C463.6627,-384.9916 434.573,-479.5792 415.5455,-541.4487"/>
<polygon fill="#6b7280" stroke="#6b7280" stroke-width="2" points="412.8364,-540.7326 413.161,-549.2023 418.189,-542.3788 412.8364,-540.7326"/>
<polygon fill="#0a0a0a" stroke="transparent" points="430.9729,-439.134 430.9729,-454.134 445.9729,-454.134 445.9729,-439.134 430.9729,-439.134"/>
<text text-anchor="start" x="432.9729" y="-444.134" font-family="Helvetica,sans-Serif" font-size="10.00" fill="#e5e7eb">e4</text>
</g>
<!-- obj_001&#45;&gt;obj_006 -->
<g id="edge5" class="edge">
<title>obj_001&#45;&gt;obj_006</title>
<path fill="none" stroke="#6b7280" stroke-width="2" d="M468.6903,-224.3183C447.7144,-190.6112 419.5646,-145.3761 397.7072,-110.2525"/>
<polygon fill="#6b7280" stroke="#6b7280" stroke-width="2" points="400.0278,-108.6819 393.4237,-103.3691 395.2732,-111.6407 400.0278,-108.6819"/>
<polygon fill="#0a0a0a" stroke="transparent" points="414.4144,-165.1146 414.4144,-180.1146 429.4144,-180.1146 429.4144,-165.1146 414.4144,-165.1146"/>
<text text-anchor="start" x="416.4144" y="-170.1146" font-family="Helvetica,sans-Serif" font-size="10.00" fill="#e5e7eb">e5</text>
</g>
<!-- obj_002&#45;&gt;obj_000 -->
<g id="edge7" class="edge">
<title>obj_002&#45;&gt;obj_000</title>
<path fill="none" stroke="#6b7280" stroke-width="2" d="M518.0472,-173.6984C485.407,-202.9891 440.0436,-243.6974 405.9247,-274.3151"/>
<polygon fill="#6b7280" stroke="#6b7280" stroke-width="2" points="403.7745,-272.4825 399.6904,-279.9096 407.5147,-276.6504 403.7745,-272.4825"/>
<polygon fill="#0a0a0a" stroke="transparent" points="442.348,-209.3227 442.348,-224.3227 457.348,-224.3227 457.348,-209.3227 442.348,-209.3227"/>
<text text-anchor="start" x="444.348" y="-214.3227" font-family="Helvetica,sans-Serif" font-size="10.00" fill="#e5e7eb">e7</text>
</g>
<!-- obj_002&#45;&gt;obj_001 -->
<g id="edge8" class="edge">
<title>obj_002&#45;&gt;obj_001</title>
<path fill="none" stroke="#6b7280" stroke-width="2" d="M536.6517,-187.5199C532.8626,-195.8926 528.9118,-204.6227 525.0489,-213.1585"/>
<polygon fill="#6b7280" stroke="#6b7280" stroke-width="2" points="522.4306,-212.153 521.6831,-220.5959 527.5325,-214.4619 522.4306,-212.153"/>
<polygon fill="#0a0a0a" stroke="transparent" points="512.5535,-205.8095 512.5535,-220.8095 527.5535,-220.8095 527.5535,-205.8095 512.5535,-205.8095"/>
<text text-anchor="start" x="514.5535" y="-210.8095" font-family="Helvetica,sans-Serif" font-size="10.00" fill="#e5e7eb">e8</text>
</g>
<!-- obj_007&#45;&gt;obj_008 -->
<g id="edge9" class="edge">
<title>obj_007&#45;&gt;obj_008</title>
<path fill="none" stroke="#6b7280" stroke-width="2" d="M735.8243,-320.2752C765.9204,-315.7787 803.2388,-310.2031 834.5061,-305.5316"/>
<polygon fill="#6b7280" stroke="#6b7280" stroke-width="2" points="835.2356,-308.2538 842.734,-304.3023 834.408,-302.7152 835.2356,-308.2538"/>
<polygon fill="#0a0a0a" stroke="transparent" points="772.611,-313.8139 772.611,-328.8139 787.611,-328.8139 787.611,-313.8139 772.611,-313.8139"/>
<text text-anchor="start" x="774.611" y="-318.8139" font-family="Helvetica,sans-Serif" font-size="10.00" fill="#e5e7eb">e9</text>
</g>
<!-- obj_000 -->
<g id="node1" class="node">
<title>obj_000</title>
<ellipse fill="#13294b" stroke="#4fa3ff" stroke-width="2.2" cx="357.8852" cy="-317.4249" rx="56" ry="56"/>
<text text-anchor="middle" x="357.8852" y="-313.9249" font-family="Helvetica,sans-Serif" font-size="15.00" fill="#ffffff">person</text>
</g>
<!-- obj_001 -->
<g id="node2" class="node">
<title>obj_001</title>
<ellipse fill="#13294b" stroke="#4fa3ff" stroke-width="2.2" cx="498.3959" cy="-272.0535" rx="56" ry="56"/>
<text text-anchor="middle" x="498.3959" y="-268.5535" font-family="Helvetica,sans-Serif" font-size="15.00" fill="#ffffff">person</text>
</g>
<!-- obj_002 -->
<g id="node3" class="node">
<title>obj_002</title>
<ellipse fill="#13294b" stroke="#4fa3ff" stroke-width="2.2" cx="559.9061" cy="-136.135" rx="56" ry="56"/>
<text text-anchor="middle" x="559.9061" y="-132.635" font-family="Helvetica,sans-Serif" font-size="15.00" fill="#ffffff">floor</text>
</g>
<!-- obj_003 -->
<g id="node4" class="node">
<title>obj_003</title>
<ellipse fill="#13294b" stroke="#4fa3ff" stroke-width="2.2" cx="396.6843" cy="-602.7775" rx="56" ry="56"/>
<text text-anchor="middle" x="396.6843" y="-599.2775" font-family="Helvetica,sans-Serif" font-size="15.00" fill="#ffffff">skirt</text>
</g>
<!-- obj_004 -->
<g id="node5" class="node">
<title>obj_004</title>
<ellipse fill="#13294b" stroke="#4fa3ff" stroke-width="2.2" cx="614.1007" cy="-498.0434" rx="56" ry="56"/>
<text text-anchor="middle" x="614.1007" y="-494.5434" font-family="Helvetica,sans-Serif" font-size="15.00" fill="#ffffff">pants</text>
</g>
<!-- obj_005 -->
<g id="node6" class="node">
<title>obj_005</title>
<ellipse fill="#13294b" stroke="#4fa3ff" stroke-width="2.2" cx="55.9848" cy="-339.7015" rx="56" ry="56"/>
<text text-anchor="middle" x="55.9848" y="-336.2015" font-family="Helvetica,sans-Serif" font-size="15.00" fill="#ffffff">shirt</text>
</g>
<!-- obj_006 -->
<g id="node7" class="node">
<title>obj_006</title>
<ellipse fill="#13294b" stroke="#4fa3ff" stroke-width="2.2" cx="363.7939" cy="-55.7558" rx="56" ry="56"/>
<text text-anchor="middle" x="363.7939" y="-52.2558" font-family="Helvetica,sans-Serif" font-size="15.00" fill="#ffffff">shirt</text>
</g>
<!-- obj_007 -->
<g id="node8" class="node">
<title>obj_007</title>
<ellipse fill="#13294b" stroke="#4fa3ff" stroke-width="2.2" cx="680.2718" cy="-328.575" rx="56" ry="56"/>
<text text-anchor="middle" x="680.2718" y="-325.075" font-family="Helvetica,sans-Serif" font-size="15.00" fill="#ffffff">building</text>
</g>
<!-- obj_008 -->
<g id="node9" class="node">
<title>obj_008</title>
<ellipse fill="#13294b" stroke="#4fa3ff" stroke-width="2.2" cx="898.1851" cy="-296.0176" rx="56" ry="56"/>
<text text-anchor="middle" x="898.1851" y="-292.5176" font-family="Helvetica,sans-Serif" font-size="15.00" fill="#ffffff">railing</text>
</g>
<!-- main_edge_legend -->
<g id="node10" class="node">
<title>main_edge_legend</title>
<polygon fill="#13294b" stroke="transparent" stroke-width="2.2" points="863.5874,-920.7726 623.5874,-920.7726 623.5874,-623.7726 863.5874,-623.7726 863.5874,-920.7726"/>
<polygon fill="#0a0a0a" stroke="transparent" points="623.5874,-623.7726 623.5874,-920.7726 863.5874,-920.7726 863.5874,-623.7726 623.5874,-623.7726"/>
<polygon fill="#13294b" stroke="transparent" points="623.5874,-893.2726 623.5874,-920.2726 863.5874,-920.2726 863.5874,-893.2726 623.5874,-893.2726"/>
<polygon fill="none" stroke="#4fa3ff" points="623.5874,-893.2726 623.5874,-920.2726 863.5874,-920.2726 863.5874,-893.2726 623.5874,-893.2726"/>
<text text-anchor="start" x="696.5874" y="-904.2726" font-family="Helvetica,sans-Serif" font-weight="bold" font-size="15.00" fill="#ffffff">Edge Legend</text>
<polygon fill="none" stroke="#4fa3ff" points="623.5874,-866.2726 623.5874,-893.2726 650.5874,-893.2726 650.5874,-866.2726 623.5874,-866.2726"/>
<text text-anchor="start" x="629.0874" y="-877.2726" font-family="Helvetica,sans-Serif" font-weight="bold" font-size="15.00" fill="#ffffff">ID</text>
<polygon fill="none" stroke="#4fa3ff" points="650.5874,-866.2726 650.5874,-893.2726 717.5874,-893.2726 717.5874,-866.2726 650.5874,-866.2726"/>
<text text-anchor="start" x="661.0874" y="-877.2726" font-family="Helvetica,sans-Serif" font-weight="bold" font-size="15.00" fill="#ffffff">Status</text>
<polygon fill="none" stroke="#4fa3ff" points="717.5874,-866.2726 717.5874,-893.2726 863.5874,-893.2726 863.5874,-866.2726 717.5874,-866.2726"/>
<text text-anchor="start" x="760.5874" y="-877.2726" font-family="Helvetica,sans-Serif" font-weight="bold" font-size="15.00" fill="#ffffff">Relation</text>
<polygon fill="none" stroke="#4fa3ff" points="623.5874,-839.2726 623.5874,-866.2726 650.5874,-866.2726 650.5874,-839.2726 623.5874,-839.2726"/>
<text text-anchor="start" x="628.5874" y="-849.2726" font-family="Helvetica,sans-Serif" font-size="15.00" fill="#ffffff">e1</text>
<polygon fill="none" stroke="#4fa3ff" points="650.5874,-839.2726 650.5874,-866.2726 717.5874,-866.2726 717.5874,-839.2726 650.5874,-839.2726"/>
<text text-anchor="start" x="655.5874" y="-849.2726" font-family="Helvetica,sans-Serif" font-size="15.00" fill="#6b7280">Baseline</text>
<polygon fill="none" stroke="#4fa3ff" points="717.5874,-839.2726 717.5874,-866.2726 863.5874,-866.2726 863.5874,-839.2726 717.5874,-839.2726"/>
<text text-anchor="start" x="764.5874" y="-849.2726" font-family="Helvetica,sans-Serif" font-size="15.00" fill="#ffffff">wearing</text>
<polygon fill="none" stroke="#4fa3ff" points="623.5874,-812.2726 623.5874,-839.2726 650.5874,-839.2726 650.5874,-812.2726 623.5874,-812.2726"/>
<text text-anchor="start" x="628.5874" y="-822.2726" font-family="Helvetica,sans-Serif" font-size="15.00" fill="#ffffff">e2</text>
<polygon fill="none" stroke="#4fa3ff" points="650.5874,-812.2726 650.5874,-839.2726 717.5874,-839.2726 717.5874,-812.2726 650.5874,-812.2726"/>
<text text-anchor="start" x="655.5874" y="-822.2726" font-family="Helvetica,sans-Serif" font-size="15.00" fill="#6b7280">Baseline</text>
<polygon fill="none" stroke="#4fa3ff" points="717.5874,-812.2726 717.5874,-839.2726 863.5874,-839.2726 863.5874,-812.2726 717.5874,-812.2726"/>
<text text-anchor="start" x="764.5874" y="-822.2726" font-family="Helvetica,sans-Serif" font-size="15.00" fill="#ffffff">wearing</text>
<polygon fill="none" stroke="#4fa3ff" points="623.5874,-785.2726 623.5874,-812.2726 650.5874,-812.2726 650.5874,-785.2726 623.5874,-785.2726"/>
<text text-anchor="start" x="628.5874" y="-795.2726" font-family="Helvetica,sans-Serif" font-size="15.00" fill="#ffffff">e3</text>
<polygon fill="none" stroke="#4fa3ff" points="650.5874,-785.2726 650.5874,-812.2726 717.5874,-812.2726 717.5874,-785.2726 650.5874,-785.2726"/>
<text text-anchor="start" x="662.5874" y="-795.2726" font-family="Helvetica,sans-Serif" font-size="15.00" fill="#ff7f32">Added</text>
<polygon fill="none" stroke="#4fa3ff" points="717.5874,-785.2726 717.5874,-812.2726 863.5874,-812.2726 863.5874,-785.2726 717.5874,-785.2726"/>
<text text-anchor="start" x="722.5874" y="-795.2726" font-family="Helvetica,sans-Serif" font-size="15.00" fill="#ffffff">raising&#45;and&#45;touching</text>
<polygon fill="none" stroke="#4fa3ff" points="623.5874,-758.2726 623.5874,-785.2726 650.5874,-785.2726 650.5874,-758.2726 623.5874,-758.2726"/>
<text text-anchor="start" x="628.5874" y="-768.2726" font-family="Helvetica,sans-Serif" font-size="15.00" fill="#ffffff">e4</text>
<polygon fill="none" stroke="#4fa3ff" points="650.5874,-758.2726 650.5874,-785.2726 717.5874,-785.2726 717.5874,-758.2726 650.5874,-758.2726"/>
<text text-anchor="start" x="655.5874" y="-768.2726" font-family="Helvetica,sans-Serif" font-size="15.00" fill="#6b7280">Baseline</text>
<polygon fill="none" stroke="#4fa3ff" points="717.5874,-758.2726 717.5874,-785.2726 863.5874,-785.2726 863.5874,-758.2726 717.5874,-758.2726"/>
<text text-anchor="start" x="764.5874" y="-768.2726" font-family="Helvetica,sans-Serif" font-size="15.00" fill="#ffffff">wearing</text>
<polygon fill="none" stroke="#4fa3ff" points="623.5874,-731.2726 623.5874,-758.2726 650.5874,-758.2726 650.5874,-731.2726 623.5874,-731.2726"/>
<text text-anchor="start" x="628.5874" y="-741.2726" font-family="Helvetica,sans-Serif" font-size="15.00" fill="#ffffff">e5</text>
<polygon fill="none" stroke="#4fa3ff" points="650.5874,-731.2726 650.5874,-758.2726 717.5874,-758.2726 717.5874,-731.2726 650.5874,-731.2726"/>
<text text-anchor="start" x="655.5874" y="-741.2726" font-family="Helvetica,sans-Serif" font-size="15.00" fill="#6b7280">Baseline</text>
<polygon fill="none" stroke="#4fa3ff" points="717.5874,-731.2726 717.5874,-758.2726 863.5874,-758.2726 863.5874,-731.2726 717.5874,-731.2726"/>
<text text-anchor="start" x="764.5874" y="-741.2726" font-family="Helvetica,sans-Serif" font-size="15.00" fill="#ffffff">wearing</text>
<polygon fill="none" stroke="#4fa3ff" points="623.5874,-704.2726 623.5874,-731.2726 650.5874,-731.2726 650.5874,-704.2726 623.5874,-704.2726"/>
<text text-anchor="start" x="628.5874" y="-714.2726" font-family="Helvetica,sans-Serif" font-size="15.00" fill="#ffffff">e6</text>
<polygon fill="none" stroke="#4fa3ff" points="650.5874,-704.2726 650.5874,-731.2726 717.5874,-731.2726 717.5874,-704.2726 650.5874,-704.2726"/>
<text text-anchor="start" x="662.5874" y="-714.2726" font-family="Helvetica,sans-Serif" font-size="15.00" fill="#ff7f32">Added</text>
<polygon fill="none" stroke="#4fa3ff" points="717.5874,-704.2726 717.5874,-731.2726 863.5874,-731.2726 863.5874,-704.2726 717.5874,-704.2726"/>
<text text-anchor="start" x="722.5874" y="-714.2726" font-family="Helvetica,sans-Serif" font-size="15.00" fill="#ffffff">raising&#45;and&#45;touching</text>
<polygon fill="none" stroke="#4fa3ff" points="623.5874,-677.2726 623.5874,-704.2726 650.5874,-704.2726 650.5874,-677.2726 623.5874,-677.2726"/>
<text text-anchor="start" x="628.5874" y="-687.2726" font-family="Helvetica,sans-Serif" font-size="15.00" fill="#ffffff">e7</text>
<polygon fill="none" stroke="#4fa3ff" points="650.5874,-677.2726 650.5874,-704.2726 717.5874,-704.2726 717.5874,-677.2726 650.5874,-677.2726"/>
<text text-anchor="start" x="655.5874" y="-687.2726" font-family="Helvetica,sans-Serif" font-size="15.00" fill="#6b7280">Baseline</text>
<polygon fill="none" stroke="#4fa3ff" points="717.5874,-677.2726 717.5874,-704.2726 863.5874,-704.2726 863.5874,-677.2726 717.5874,-677.2726"/>
<text text-anchor="start" x="765.5874" y="-687.2726" font-family="Helvetica,sans-Serif" font-size="15.00" fill="#ffffff">bearing</text>
<polygon fill="none" stroke="#4fa3ff" points="623.5874,-650.2726 623.5874,-677.2726 650.5874,-677.2726 650.5874,-650.2726 623.5874,-650.2726"/>
<text text-anchor="start" x="628.5874" y="-660.2726" font-family="Helvetica,sans-Serif" font-size="15.00" fill="#ffffff">e8</text>
<polygon fill="none" stroke="#4fa3ff" points="650.5874,-650.2726 650.5874,-677.2726 717.5874,-677.2726 717.5874,-650.2726 650.5874,-650.2726"/>
<text text-anchor="start" x="655.5874" y="-660.2726" font-family="Helvetica,sans-Serif" font-size="15.00" fill="#6b7280">Baseline</text>
<polygon fill="none" stroke="#4fa3ff" points="717.5874,-650.2726 717.5874,-677.2726 863.5874,-677.2726 863.5874,-650.2726 717.5874,-650.2726"/>
<text text-anchor="start" x="765.5874" y="-660.2726" font-family="Helvetica,sans-Serif" font-size="15.00" fill="#ffffff">bearing</text>
<polygon fill="none" stroke="#4fa3ff" points="623.5874,-623.2726 623.5874,-650.2726 650.5874,-650.2726 650.5874,-623.2726 623.5874,-623.2726"/>
<text text-anchor="start" x="628.5874" y="-633.2726" font-family="Helvetica,sans-Serif" font-size="15.00" fill="#ffffff">e9</text>
<polygon fill="none" stroke="#4fa3ff" points="650.5874,-623.2726 650.5874,-650.2726 717.5874,-650.2726 717.5874,-623.2726 650.5874,-623.2726"/>
<text text-anchor="start" x="655.5874" y="-633.2726" font-family="Helvetica,sans-Serif" font-size="15.00" fill="#6b7280">Baseline</text>
<polygon fill="none" stroke="#4fa3ff" points="717.5874,-623.2726 717.5874,-650.2726 863.5874,-650.2726 863.5874,-623.2726 717.5874,-623.2726"/>
<text text-anchor="start" x="757.5874" y="-633.2726" font-family="Helvetica,sans-Serif" font-size="15.00" fill="#ffffff">anchoring</text>
</g>
</g>
</svg>
